<svg width="97" height="35" viewBox="0 0 97 35" fill="none" xmlns="http://www.w3.org/2000/svg">
<g clip-path="url(#clip0_29461_1418)">
<path d="M10.6713 4.375H0V29.8958L10.6713 4.375Z" fill="#FA0C00"/>
<path d="M18.1797 4.375H28.8371V29.8958L18.1797 4.375Z" fill="#FA0C00"/>
<path d="M14.4265 13.7812L21.2186 29.896H16.7624L14.7324 24.7654H9.76172L14.4265 13.7812Z" fill="#FA0C00"/>
<path d="M46.2472 20.6045L47.5055 24.2126C47.5473 24.303 47.6098 24.3447 47.7211 24.3447H50.1404C50.2724 24.3447 50.2933 24.2821 50.2724 24.15L45.274 10.2669C45.2531 10.1556 45.2322 10.1348 45.121 10.1348H42.1177C42.0343 10.1348 41.9856 10.1973 41.9856 10.2877C41.9439 11.0177 41.8814 11.2401 41.791 11.4556L37.3347 24.1292C37.3139 24.2821 37.3626 24.3447 37.4877 24.3447H39.6498C39.7819 24.3447 39.8444 24.303 39.8931 24.1709L41.0819 20.6045H46.2472ZM41.7701 18.2478C42.4236 16.2734 43.2857 13.7429 43.6333 12.2968H43.6541C44.0852 13.8124 45.1001 16.8156 45.559 18.2478H41.7701Z" fill="#FA0C00"/>
<path d="M56.6979 24.5605C57.9979 24.5605 59.3813 24.3241 60.7857 23.7193C60.8969 23.6776 60.9177 23.6289 60.9177 23.5247C60.876 23.1353 60.8274 22.5722 60.8274 22.1412V9.07143C60.8274 8.988 60.8274 8.94629 60.7231 8.94629H58.3664C58.276 8.94629 58.2343 8.988 58.2343 9.09923V13.5277C57.8658 13.486 57.6086 13.4651 57.3027 13.4651C53.4999 13.4651 51.1641 15.9748 51.1641 19.1101C51.1641 22.746 53.5625 24.5605 56.6979 24.5605ZM58.2343 22.1412C57.8449 22.2663 57.4139 22.315 56.9759 22.315C55.2518 22.315 53.8406 21.3417 53.8406 18.978C53.8406 16.8855 55.2936 15.648 57.2193 15.648C57.6086 15.648 57.9492 15.6897 58.2343 15.801V22.1412Z" fill="#FA0C00"/>
<path d="M68.4354 13.4648C65.1888 13.4648 63.1797 15.9537 63.1797 19.0265C63.1797 21.7725 64.7787 24.5603 68.3867 24.5603C71.4387 24.5603 73.5799 22.3148 73.5799 18.9569C73.5799 15.9954 71.7654 13.4648 68.4354 13.4648ZM68.3033 15.6478C70.1386 15.6478 70.9173 17.2259 70.9173 19.0265C70.9173 21.2511 69.7702 22.3565 68.4354 22.3565C66.7878 22.3565 65.8145 20.973 65.8145 18.9778C65.8145 16.9269 66.8503 15.6478 68.3033 15.6478Z" fill="#FA0C00"/>
<path d="M76.0162 8.94629C75.9259 8.94629 75.8633 8.988 75.8633 9.09923V23.8931C75.8633 23.9557 75.9259 24.0669 76.0162 24.0878C77.0521 24.4076 78.1366 24.5605 79.2559 24.5605C82.4607 24.5605 85.5752 22.5722 85.5752 18.5679C85.5752 15.6689 83.587 13.4651 80.4725 13.4651C79.7564 13.4651 79.089 13.5763 78.505 13.771L78.4772 9.12009C78.4772 8.96715 78.4355 8.94629 78.2826 8.94629H76.0162ZM82.9126 18.832C82.9126 21.2305 81.2719 22.3567 79.4992 22.3567C79.1307 22.3567 78.804 22.3359 78.505 22.2455V15.9331C78.8457 15.801 79.2559 15.6897 80.0136 15.6897C81.7238 15.6897 82.9126 16.7743 82.9126 18.832Z" fill="#FA0C00"/>
<path d="M94.3703 19.6104C95.427 19.6104 96.296 19.5896 96.5949 19.52C96.7061 19.4992 96.7479 19.4575 96.7687 19.3671C96.8313 19.1307 96.8591 18.6371 96.8591 18.0323C96.8591 15.9745 95.6216 13.4648 92.4237 13.4648C89.1563 13.4648 87.3418 16.1275 87.3418 19.1307C87.3418 21.7934 88.7461 24.5603 92.6809 24.5603C94.1548 24.5603 95.1072 24.3239 95.9275 23.9346C96.0109 23.8929 96.0527 23.8233 96.0527 23.6982V21.8976C96.0527 21.7934 95.9901 21.7725 95.9275 21.8142C95.1072 22.1618 94.2173 22.3356 93.2441 22.3356C91.0403 22.3356 90.0392 21.119 89.9766 19.6104H94.3703ZM89.9766 17.7473C90.1504 16.6906 90.8178 15.5435 92.3125 15.5435C93.9601 15.5435 94.3911 16.9269 94.3911 17.5526C94.3911 17.5735 94.3911 17.6639 94.3911 17.7264C94.3008 17.7473 94.0227 17.7473 93.2023 17.7473H89.9766Z" fill="#FA0C00"/>
</g>
<defs>
<clipPath id="clip0_29461_1418">
<rect width="96.9792" height="35" fill="white"/>
</clipPath>
</defs>
</svg>
