<svg width="18" height="18" viewBox="0 0 18 18" fill="none" xmlns="http://www.w3.org/2000/svg">
<path fill-rule="evenodd" clip-rule="evenodd" d="M4 2.018C3.46 2.041 3.072 2.092 2.729 2.208C2.14238 2.40442 1.60932 2.73422 1.17171 3.17148C0.734106 3.60874 0.403882 4.14154 0.207 4.728C1.49012e-08 5.349 0 6.115 0 7.649C0 7.744 1.11759e-08 7.792 0.013 7.83C0.0252768 7.86679 0.0459435 7.90021 0.0733657 7.92763C0.100788 7.95506 0.134214 7.97572 0.171 7.988C0.209 8.001 0.257 8.001 0.353 8.001H17.647C17.743 8.001 17.791 8.001 17.829 7.988C17.8658 7.97572 17.8992 7.95506 17.9266 7.92763C17.9541 7.90021 17.9747 7.86679 17.987 7.83C18 7.791 18 7.743 18 7.647C18 6.114 18 5.347 17.793 4.729C17.5964 4.14217 17.2663 3.60897 16.8287 3.17135C16.391 2.73372 15.8578 2.40362 15.271 2.207C14.928 2.092 14.539 2.041 14 2.018V4.5C14 4.89782 13.842 5.27936 13.5607 5.56066C13.2794 5.84196 12.8978 6 12.5 6C12.1022 6 11.7206 5.84196 11.4393 5.56066C11.158 5.27936 11 4.89782 11 4.5V2H7V4.5C7 4.89782 6.84196 5.27936 6.56066 5.56066C6.27936 5.84196 5.89782 6 5.5 6C5.10218 6 4.72064 5.84196 4.43934 5.56066C4.15804 5.27936 4 4.89782 4 4.5V2.018Z" fill="#2D8CFF"/>
<path d="M0 9.5C0 9.264 -4.47035e-08 9.146 0.073 9.073C0.146 9 0.264 9 0.5 9H17.5C17.736 9 17.854 9 17.927 9.073C18 9.146 18 9.264 18 9.5V10C18 13.771 18 15.657 16.828 16.828C15.656 17.999 13.771 18 10 18H8C4.229 18 2.343 18 1.172 16.828C0.000999928 15.656 0 13.771 0 10V9.5Z" fill="#2D8CFF" fill-opacity="0.25"/>
<path d="M5.5 0.5V4.5M12.5 0.5V4.5" stroke="#2D8CFF" stroke-linecap="round"/>
</svg>
