<svg width="97" height="35" viewBox="0 0 97 35" fill="none" xmlns="http://www.w3.org/2000/svg">
<g clip-path="url(#clip0_29461_618)">
<path fill-rule="evenodd" clip-rule="evenodd" d="M96.3678 22.2862C92.3345 28.0446 85.9469 26.3737 84.0285 25.0654C83.2121 25.5319 81.7804 26.5544 79.8714 26.4364C75.8059 26.1851 74.35 21.2926 74.35 21.2926C74.3792 21.3121 73.139 21.653 72.4687 21.6469C72.46 23.0816 70.9873 26.509 67.0125 26.4651C62.5523 26.4162 61.6455 20.8204 61.6455 20.8204C61.6455 20.8204 61.2017 21.3394 59.514 21.8564C59.599 20.7541 59.5369 26.2973 54.1911 26.3788C49.9649 26.4433 48.8241 20.7341 48.8241 20.7341C48.8241 20.7341 48.0909 21.3754 46.6701 21.5979C46.7604 20.4776 46.6136 26.3977 41.2671 26.3788C37.6541 26.3662 36.4194 22.862 36.5154 22.3756C36.638 21.7557 35.2944 26.466 31.7848 26.3926C30.3365 26.3568 29.2568 25.4738 28.5793 24.2965C27.6723 25.1705 26.3555 26.3926 24.8782 26.3926C22.2266 26.3926 21.0575 24.525 21.2555 19.1906C21.2724 18.5579 21.2182 18.309 20.4713 18.2144C20.023 18.1514 19.5639 18.0321 19.0782 17.9693C18.9225 18.4068 17.602 26.2503 13.0612 26.3992C11.5379 26.4491 10.7049 25.3378 10.0209 24.5131C8.97227 25.6812 7.58806 26.4364 5.61613 26.4364C2.27584 26.4364 0 24.1624 0 21.3574C0 18.5522 2.27584 16.2785 5.61613 16.2785C6.20673 16.2785 6.37252 16.3498 6.91207 16.4823C5.80247 7.97491 8.42289 6.64532 10.7152 6.64532C12.9159 6.64532 16.6757 10.9467 11.3854 21.8572C12.5599 25.1115 15.092 24.9275 16.3088 18.2283C16.5564 16.8665 15.8943 15.0289 16.9242 14.7724C18.8069 14.3037 19.0067 15.71 19.8894 15.9443C20.8229 16.192 21.3677 16.1678 22.2638 16.3254C23.795 16.5772 24.3925 17.2699 24.2059 18.8126C23.9819 20.7647 23.59 23.6059 24.7849 23.9522C25.6466 24.2037 27.2198 22.6989 27.4959 21.8755C27.7719 21.0521 27.8295 20.7703 27.854 20.1664C27.8914 18.8757 27.9382 17.9296 28.1996 16.9534C28.3115 16.5757 28.439 16.3256 28.9464 16.3085C29.364 16.2995 30.1276 16.1936 30.4638 16.414C30.9118 16.6975 30.8558 16.9851 30.8044 17.7422C30.2833 28.5365 34.2939 23.1479 35.4897 18.8333C35.0639 13.9544 35.3562 6.73466 38.9868 6.61358C40.875 6.5506 41.7097 7.82441 41.8015 8.77519C42.0613 11.4605 40.6065 15.9088 38.6933 18.9002C37.5999 25.0041 43.4741 26.2109 44.4135 21.3389C42.8766 20.7235 41.2156 18.2328 42.5672 17.019C43.3256 16.3377 46.4826 17.3164 46.5343 19.4508C48.0829 19.102 48.2897 18.3657 48.3111 18.4877C47.8854 13.6088 48.2803 6.73473 51.9111 6.61364C53.799 6.55067 54.6337 7.82447 54.7255 8.77525C54.9852 11.4606 53.5304 15.9088 51.6175 18.9003C50.5239 25.0041 56.3983 26.211 57.3374 21.339C56.1995 21.1541 53.7975 18.5048 55.1834 17.019C55.9241 16.225 59.0695 17.8762 59.4217 19.5214C60.9093 19.1669 61.1114 18.454 61.1327 18.574C60.7069 13.6953 61.1017 6.82119 64.7325 6.7001C66.6205 6.63713 67.4551 7.91094 67.5469 8.86172C67.8066 11.5471 66.3519 15.9954 64.4387 18.9868C63.3454 25.0907 69.2196 26.2973 70.159 21.4253C68.5953 21.206 66.373 18.4088 68.1616 16.9778C68.8762 16.406 71.6067 17.8902 72.2459 19.5835C73.134 19.5547 73.6868 19.2968 73.8053 19.2708C72.3875 13.5433 73.443 6.67109 77.3488 6.61372C79.4598 6.58275 81.5236 7.5748 80.6178 13.0238C79.7531 18.2227 76.6448 20.4045 76.6521 20.4379C76.8329 21.0607 78.4279 26.2732 82.4442 23.5229C82.2364 23.1264 82.0282 22.7214 81.9119 22.2308C81.2462 19.3727 82.5537 16.1445 86.1077 15.6227C88.144 15.3238 90.0621 16.1586 90.3654 18.0407C90.8644 21.1204 87.5621 23.3507 86.3063 23.8345C85.7439 23.5654 91.4047 26.6228 94.7643 20.4958C94.9591 20.146 95.1939 20.1756 95.4982 20.3559C95.7131 20.4833 96.9371 21.4597 96.3678 22.2862ZM8.04589 20.6006C7.87495 20.1703 7.52415 19.222 7.4001 18.8111C6.71691 18.3108 6.22927 18.2296 5.35233 18.2296C3.40351 18.2296 2.25646 19.7469 2.25646 21.383C2.25646 23.0191 3.50608 24.5366 5.45492 24.5366C7.14381 24.5366 8.4292 23.5696 8.82137 22.2007C8.54688 21.6671 8.27459 21.1766 8.04589 20.6006ZM10.6674 8.8973C9.29809 8.8973 8.83357 11.6481 8.92372 13.9948C9.00346 16.0696 9.69192 17.8962 10.0491 18.7147C10.1397 18.8172 10.1229 18.7505 10.2038 18.8592C12.5815 14.4723 11.5953 8.8973 10.6674 8.8973ZM39.1824 8.98371C37.4125 8.81278 37.424 15.0213 37.6437 16.414C38.5629 15.1757 40.1596 9.31712 39.1824 8.98371ZM52.1063 8.98371C50.3365 8.81278 50.3479 15.0213 50.5677 16.414C51.4868 15.1757 53.0837 9.31712 52.1063 8.98371ZM64.9279 9.07009C63.1579 8.89916 63.1693 15.1077 63.3892 16.5005C64.3082 15.2621 65.9051 9.40348 64.9279 9.07009ZM77.5441 8.62027C74.7866 9.08657 75.4287 16.8288 75.8475 18.1867C79.0956 14.4299 79.1625 8.47916 77.5441 8.62027ZM87.8784 18.2954C87.7382 17.8018 87.0372 17.5379 86.5533 17.603C85.1688 17.7622 83.826 19.2143 84.3458 21.4251C84.4615 21.9174 84.751 22.3707 84.7463 22.3556C87.8449 20.605 88.1083 19.2255 87.8784 18.2954ZM29.4892 14.5996C29.0935 14.5997 28.7067 14.5009 28.3776 14.3158C28.0486 14.1307 27.792 13.8676 27.6405 13.5598C27.489 13.2519 27.4494 12.9131 27.5266 12.5863C27.6037 12.2595 27.7943 11.9592 28.0741 11.7236C28.3539 11.4879 28.7104 11.3275 29.0985 11.2624C29.4866 11.1974 29.8889 11.2308 30.2545 11.3583C30.6201 11.4858 30.9325 11.7018 31.1524 11.9789C31.3722 12.256 31.4896 12.5817 31.4896 12.9149C31.4896 13.1362 31.4379 13.3552 31.3373 13.5596C31.2368 13.764 31.0895 13.9497 30.9037 14.1062C30.7179 14.2626 30.4975 14.3867 30.2548 14.4714C30.0121 14.556 29.752 14.5996 29.4892 14.5996Z" fill="#0D0C22"/>
</g>
<defs>
<clipPath id="clip0_29461_618">
<rect width="96.9792" height="35" fill="white"/>
</clipPath>
</defs>
</svg>
