<svg width="32" height="32" viewBox="0 0 32 32" fill="none" xmlns="http://www.w3.org/2000/svg">
<path d="M24.0007 8H8.00065C6.52789 8 5.33398 9.19391 5.33398 10.6667V21.3333C5.33398 22.8061 6.52789 24 8.00065 24H24.0007C25.4734 24 26.6673 22.8061 26.6673 21.3333V10.6667C26.6673 9.19391 25.4734 8 24.0007 8Z" stroke="#FDFDFD" stroke-width="1.33333"/>
<path d="M14.8087 16.7373L5.33398 12V21.3333C5.33398 22.0406 5.61494 22.7189 6.11503 23.219C6.61513 23.719 7.29341 24 8.00065 24H24.0007C24.7079 24 25.3862 23.719 25.8863 23.219C26.3864 22.7189 26.6673 22.0406 26.6673 21.3333V12L17.1927 16.7373C16.8225 16.9223 16.4144 17.0186 16.0007 17.0186C15.5869 17.0186 15.1788 16.9223 14.8087 16.7373Z" fill="#FDFDFD"/>
</svg>
