<svg width="97" height="35" viewBox="0 0 97 35" fill="none" xmlns="http://www.w3.org/2000/svg">
<g clip-path="url(#clip0_29461_1261)">
<path d="M36.0874 9.3125H30.7466C30.3811 9.3125 30.0703 9.59798 30.0133 9.9859L27.8533 24.7108C27.8103 25.0013 28.0196 25.2633 28.2937 25.2633H30.8434C31.2089 25.2633 31.5197 24.9778 31.5767 24.589L32.1593 20.6175C32.2155 20.2287 32.5271 19.9433 32.8918 19.9433H34.5825C38.1006 19.9433 40.131 18.1128 40.6613 14.4856C40.9003 12.8986 40.6714 11.6518 39.9803 10.7785C39.2213 9.81965 37.8749 9.3125 36.0874 9.3125ZM36.7035 14.6904C36.4115 16.7509 34.9472 16.7509 33.5314 16.7509H32.7255L33.2909 12.9028C33.3245 12.6702 33.5119 12.499 33.7305 12.499H34.0999C35.0644 12.499 35.9742 12.499 36.4443 13.0901C36.7246 13.4427 36.8105 13.9667 36.7035 14.6904Z" fill="#253B80"/>
<path d="M52.0521 14.6241H49.4945C49.2766 14.6241 49.0884 14.7954 49.0549 15.028L48.9416 15.7971L48.7628 15.5183C48.2091 14.6543 46.9745 14.3655 45.7422 14.3655C42.916 14.3655 40.5021 16.667 40.032 19.8954C39.7876 21.5058 40.1351 23.0458 40.9847 24.1197C41.7641 25.1071 42.8793 25.5185 44.2061 25.5185C46.4833 25.5185 47.746 23.9442 47.746 23.9442L47.632 24.7082C47.589 25.0004 47.7983 25.2624 48.0709 25.2624H50.3746C50.7409 25.2624 51.0501 24.9769 51.1079 24.5882L52.4902 15.1766C52.5339 14.8869 52.3254 14.6241 52.0521 14.6241ZM48.4871 19.976C48.2403 21.547 47.0807 22.6016 45.6016 22.6016C44.8589 22.6016 44.2654 22.3455 43.8843 21.8602C43.5063 21.3782 43.3627 20.6922 43.4829 19.9281C43.7133 18.3706 44.8925 17.2816 46.3489 17.2816C47.0752 17.2816 47.6656 17.541 48.0545 18.0305C48.4442 18.5251 48.5988 19.2153 48.4871 19.976Z" fill="#253B80"/>
<path d="M65.673 14.6241H63.103C62.8578 14.6241 62.6274 14.755 62.4884 14.9742L58.9437 20.5881L57.4412 15.1933C57.3467 14.8558 57.057 14.6241 56.729 14.6241H54.2035C53.8966 14.6241 53.6834 14.9465 53.781 15.2572L56.6119 24.1893L53.9505 28.2289C53.7412 28.5471 53.952 28.9845 54.3136 28.9845H56.8805C57.1242 28.9845 57.3522 28.8569 57.4904 28.642L66.0385 15.3755C66.2431 15.0582 66.033 14.6241 65.673 14.6241Z" fill="#253B80"/>
<path d="M74.1811 9.31241H68.8396C68.4749 9.31241 68.1641 9.59789 68.1071 9.98581L65.947 24.7107C65.9041 25.0012 66.1134 25.2632 66.3859 25.2632H69.127C69.3815 25.2632 69.5994 25.0633 69.6393 24.7913L70.2523 20.6174C70.3085 20.2287 70.6201 19.9432 70.9848 19.9432H72.6747C76.1936 19.9432 78.2232 18.1127 78.7543 14.4855C78.994 12.8985 78.7636 11.6517 78.0725 10.7784C77.3142 9.81956 75.9687 9.31241 74.1811 9.31241ZM74.7973 14.6903C74.506 16.7508 73.0418 16.7508 71.6252 16.7508H70.82L71.3862 12.9027C71.4198 12.6702 71.6056 12.4989 71.8251 12.4989H72.1945C73.1581 12.4989 74.0687 12.4989 74.5388 13.09C74.8192 13.4426 74.9043 13.9666 74.7973 14.6903Z" fill="#179BD7"/>
<path d="M90.145 14.624H87.589C87.3695 14.624 87.1829 14.7953 87.1501 15.0279L87.0369 15.797L86.8572 15.5182C86.3036 14.6542 85.0697 14.3654 83.8374 14.3654C81.0112 14.3654 78.5981 16.6669 78.128 19.8953C77.8844 21.5058 78.2303 23.0457 79.08 24.1196C79.8609 25.107 80.9745 25.5184 82.3013 25.5184C84.5785 25.5184 85.8412 23.9441 85.8412 23.9441L85.7272 24.7082C85.6843 25.0004 85.8936 25.2623 86.1677 25.2623H88.4706C88.8353 25.2623 89.1461 24.9769 89.2032 24.5881L90.5862 15.1765C90.6284 14.8868 90.4191 14.624 90.145 14.624ZM86.58 19.9759C86.3348 21.5469 85.1736 22.6015 83.6945 22.6015C82.9534 22.6015 82.3583 22.3454 81.9772 21.8601C81.5992 21.3781 81.4571 20.6921 81.5758 19.9281C81.8077 18.3705 82.9854 17.2815 84.4418 17.2815C85.1681 17.2815 85.7585 17.5409 86.1474 18.0305C86.5386 18.525 86.6932 19.2152 86.58 19.9759Z" fill="#179BD7"/>
<path d="M93.1601 9.71623L90.968 24.7106C90.9251 25.0012 91.1343 25.2631 91.4069 25.2631H93.6107C93.9769 25.2631 94.2877 24.9776 94.344 24.5889L96.5056 9.86485C96.5485 9.57433 96.3392 9.31152 96.0667 9.31152H93.599C93.3811 9.31236 93.1936 9.48365 93.1601 9.71623Z" fill="#179BD7"/>
<path d="M5.67379 28.1251L6.08222 25.3358L5.17244 25.3131H0.828125L3.8472 4.73088C3.85657 4.66875 3.88703 4.61082 3.93154 4.56967C3.97605 4.52853 4.03306 4.50586 4.09241 4.50586H11.4175C13.8493 4.50586 15.5276 5.04995 16.4038 6.12386C16.8145 6.62765 17.0762 7.1541 17.2027 7.73346C17.3354 8.34136 17.3378 9.06766 17.2081 9.95349L17.1988 10.0181V10.5857L17.6095 10.836C17.9555 11.0333 18.2304 11.2591 18.4412 11.5177C18.7926 11.9485 19.0199 12.4959 19.1159 13.145C19.2151 13.8125 19.1823 14.6068 19.0199 15.5061C18.8325 16.5405 18.5295 17.4415 18.1203 18.1787C17.7438 18.8579 17.2644 19.4213 16.6951 19.858C16.1515 20.2727 15.5057 20.5876 14.7755 20.7891C14.068 20.9873 13.2613 21.0872 12.3765 21.0872H11.8064C11.3988 21.0872 11.0029 21.2451 10.6921 21.528C10.3805 21.8169 10.1743 22.2115 10.111 22.6431L10.0681 22.8941L9.34651 27.8102L9.31371 27.9908C9.30512 28.0479 9.29028 28.0764 9.26842 28.0957C9.24889 28.1134 9.22078 28.1251 9.19345 28.1251H5.67379Z" fill="#253B80"/>
<path d="M17.9983 10.083C17.9764 10.2333 17.9514 10.387 17.9233 10.5448C16.9573 15.8774 13.6524 17.7196 9.43145 17.7196H7.28233C6.76613 17.7196 6.33116 18.1226 6.25072 18.6701L5.15039 26.1732L4.8388 28.3C4.78648 28.6593 5.04418 28.9835 5.38155 28.9835H9.19326C9.64464 28.9835 10.0281 28.6308 10.0991 28.1522L10.1366 27.944L10.8543 23.0472L10.9004 22.7785C10.9707 22.2982 11.3549 21.9455 11.8063 21.9455H12.3763C16.0694 21.9455 18.9604 20.3334 19.8053 15.6683C20.1583 13.7195 19.9756 12.0923 19.0416 10.9478C18.7589 10.6027 18.4082 10.3164 17.9983 10.083Z" fill="#179BD7"/>
<path d="M16.989 9.65015C16.8414 9.60397 16.6891 9.56198 16.5329 9.5242C16.3759 9.48726 16.2151 9.45451 16.0495 9.42596C15.47 9.3252 14.8352 9.27734 14.155 9.27734H8.41357C8.27222 9.27734 8.1379 9.31177 8.01764 9.3739C7.7529 9.51077 7.55611 9.78029 7.50847 10.1103L6.2871 18.4278L6.25195 18.6705C6.33239 18.123 6.76737 17.72 7.28356 17.72H9.43268C13.6536 17.72 16.9585 15.877 17.9245 10.5452C17.9534 10.3874 17.9776 10.2337 17.9995 10.0834C17.755 9.94402 17.4903 9.82479 17.2053 9.7232C17.135 9.69801 17.0624 9.67366 16.989 9.65015Z" fill="#222D65"/>
<path d="M7.50785 10.1099C7.55549 9.77996 7.75228 9.51044 8.01702 9.37442C8.13806 9.31228 8.2716 9.27786 8.41295 9.27786H14.1543C14.8345 9.27786 15.4694 9.32572 16.0489 9.42647C16.2144 9.45502 16.3753 9.48777 16.5323 9.52471C16.6885 9.5625 16.8407 9.60448 16.9883 9.65066C17.0617 9.67417 17.1344 9.69852 17.2054 9.72287C17.4905 9.82447 17.7552 9.94454 17.9996 10.0831C18.287 8.11243 17.9973 6.77067 17.0063 5.5557C15.9138 4.21815 13.9419 3.64551 11.4187 3.64551H4.09363C3.57821 3.64551 3.13855 4.04854 3.05889 4.59683L0.00780057 25.3907C-0.052331 25.8021 0.24286 26.1732 0.62864 26.1732H5.15101L6.28648 18.4275L7.50785 10.1099Z" fill="#253B80"/>
</g>
<defs>
<clipPath id="clip0_29461_1261">
<rect width="96.9792" height="35" fill="white"/>
</clipPath>
</defs>
</svg>
