<svg width="393" height="147" viewBox="0 0 393 147" fill="none" xmlns="http://www.w3.org/2000/svg">
<path d="M-109.48 144.934L-104.549 146M-109.48 144.934H-94.867M-109.48 144.934L-114.574 143.832M-109.48 144.934H-119.828M-104.549 146L-106.343 146L-108.119 145.997L-109.857 145.991L-111.542 145.978L-113.153 145.957L-114.674 145.926L-116.086 145.883L-117.397 145.827L-118.522 145.751L-119.547 145.662L-119.828 145.631V144.934M-104.549 146H-90.171M-90.171 146H-75.7934M-90.171 146L-94.867 144.934M-75.7934 146H-61.4154M-75.7934 146L-80.2545 144.934M-61.4154 146H-47.0378M-61.4154 146L-65.6423 144.934M-47.0378 146H-32.6602M-47.0378 146L-51.0297 144.934M-32.6602 146H-18.2823M-32.6602 146L-36.4172 144.934M-18.2823 146H-3.90468M-18.2823 146L-21.8046 144.934M-3.90468 146H10.4729M-3.90468 146L-7.19207 144.934M10.4729 146H24.8509M10.4729 146L7.42049 144.934M24.8509 146H39.2285M24.8509 146L22.033 144.934M39.2285 146H53.6061M39.2285 146L36.6456 144.934M53.6061 146H67.9837M53.6061 146L51.2581 144.934M67.9837 146H82.3616M67.9837 146L67.462 145.737L66.671 145.338L65.8707 144.934M82.3616 146H96.7392M82.3616 146L81.8978 145.737L80.4832 144.934M96.7392 146H111.117M96.7392 146L95.0957 144.934M111.117 146H125.495M111.117 146L110.594 145.604L110.064 145.204L109.887 145.069L109.708 144.934M125.495 146H139.872M125.495 146L125.059 145.604L124.912 145.471L124.765 145.338L124.321 144.934M139.872 146H154.25M139.872 146L138.933 144.934M154.25 146L154.163 145.869L154.076 145.737L153.635 145.069L153.546 144.934M154.25 146H168.628M168.628 146H183.006M168.628 146L168.158 144.934M183.006 146H197.383M183.006 146L182.918 145.604L182.771 144.934M197.383 146H211.761M197.383 146V144.934M211.761 146H226.139M211.761 146L211.848 145.604L211.996 144.934M226.139 146H240.516M226.139 146L226.608 144.934M240.516 146L240.603 145.869L240.69 145.737L241.131 145.069L241.221 144.934M240.516 146H254.894M254.894 146H269.272M254.894 146L255.714 145.069L255.833 144.934M269.272 146H283.65M269.272 146L269.707 145.604L269.854 145.471L270.149 145.204L270.297 145.069L270.446 144.934M283.65 146H298.027M283.65 146L284.172 145.604L284.702 145.204L284.88 145.069L285.059 144.934M298.027 146H312.405M298.027 146L299.671 144.934M312.405 146H326.783M312.405 146L312.869 145.737L314.283 144.934M326.783 146H341.16M326.783 146L328.896 144.934M341.16 146H355.538M341.16 146L343.508 144.934M355.538 146H369.916M355.538 146L358.121 144.934M369.916 146H384.294M369.916 146L372.733 144.934M384.294 146H398.671M384.294 146L387.346 144.934M398.671 146H413.049M398.671 146L401.959 144.934M413.049 146H427.427M413.049 146L416.571 144.934M427.427 146H441.804M427.427 146L431.184 144.934M441.804 146H456.182M441.804 146L445.796 144.934M456.182 146H470.56M456.182 146L460.409 144.934M470.56 146H484.937M470.56 146L475.021 144.934M484.937 146H499.315M484.937 146L489.634 144.934M499.315 146L501.109 146L502.885 145.997L504.624 145.991L506.308 145.978L507.919 145.957L509.44 145.926L510.853 145.883L512.164 145.827L513.289 145.751L514.313 145.662L514.595 145.631V144.934M499.315 146L504.246 144.934M475.021 144.934H460.409M475.021 144.934H489.634M475.021 144.934L479.631 143.832M460.409 144.934L464.776 143.832M460.409 144.934H445.796M416.571 144.934H401.959M416.571 144.934H431.184M416.571 144.934L417.47 144.662L420.21 143.832M401.959 144.934L405.355 143.832M401.959 144.934H387.346M358.121 144.934H343.508M358.121 144.934H372.733M358.121 144.934L358.78 144.662L359.112 144.525L360.79 143.832M343.508 144.934L343.807 144.798L344.107 144.662L345.934 143.832M343.508 144.934H328.896M299.671 144.934L299.88 144.798L301.369 143.832M299.671 144.934H285.059M299.671 144.934H314.283M285.059 144.934L285.418 144.662L285.599 144.525L285.78 144.388L286.514 143.832M285.059 144.934H270.446M241.221 144.934H226.608M241.221 144.934H255.833M241.221 144.934L241.948 143.832M226.608 144.934L226.668 144.798L226.728 144.662L226.788 144.525L226.971 144.111L227.093 143.832M226.608 144.934H211.996M182.771 144.934H168.158M182.771 144.934H197.383M182.771 144.934L182.528 143.832M168.158 144.934L168.098 144.798L168.039 144.662L167.978 144.525L167.673 143.832M168.158 144.934H153.546M124.321 144.934H109.708M124.321 144.934H138.933M124.321 144.934L124.021 144.662L123.414 144.111L123.262 143.972L123.108 143.832M109.708 144.934L109.349 144.662L109.168 144.525L108.986 144.388L108.252 143.832M109.708 144.934H95.0957M65.8707 144.934H51.2581M65.8707 144.934H80.4832M65.8707 144.934L65.3314 144.662L65.0601 144.525L63.6872 143.832M51.2581 144.934L50.9591 144.798L50.659 144.662L48.8321 143.832M51.2581 144.934H36.6456M7.42049 144.934H-7.19207M7.42049 144.934H22.033M7.42049 144.934L6.64165 144.662L6.24975 144.525L4.26653 143.832M-7.19207 144.934L-10.5886 143.832M-7.19207 144.934H-21.8046M-51.0297 144.934H-65.6423M-51.0297 144.934H-36.4172M-51.0297 144.934L-55.1538 143.832M-65.6423 144.934L-70.0092 143.832M-65.6423 144.934H-80.2545M514.646 134.963H514.595M499.938 134.963L494.359 136.37M499.938 134.963L505.731 133.502M499.938 134.963H483.13M499.938 134.963H514.595M494.359 136.37H510.858M494.359 136.37L488.982 137.726M494.359 136.37H477.861M510.858 136.37L505.182 137.726M510.858 136.37H514.595M510.858 136.37L514.595 135.477M494.426 140.297H478.792M494.426 140.297L489.325 141.516M494.426 140.297H510.06M494.426 140.297L499.709 139.034M478.792 140.297L473.959 141.516M478.792 140.297L483.797 139.034M478.792 140.297H463.158M489.325 141.516H473.959M489.325 141.516L484.396 142.694M489.325 141.516H504.69M473.959 141.516H458.594M473.959 141.516L469.29 142.694M514.756 112.752H514.595M501.193 112.752L493.999 115.085M501.193 112.752L508.745 110.303M501.193 112.752H479.492M501.193 112.752H514.595M493.999 115.085L487.137 117.31M493.999 115.085H472.812M493.999 115.085H514.595M507.834 117.31H487.137M507.834 117.31L500.815 119.434M507.834 117.31H514.595M507.834 117.31L514.595 115.264M494.107 121.465H474.325M494.107 121.465L487.689 123.408M494.107 121.465H513.888M494.107 121.465L500.815 119.434M474.325 121.465L468.335 123.408M474.325 121.465L480.587 119.434M474.325 121.465H454.544M487.689 123.408H468.335M487.689 123.408H507.042M487.689 123.408L481.542 125.268M468.335 123.408L462.598 125.268M468.335 123.408H448.981M469.998 128.762H451.824M469.998 128.762L464.571 130.405M469.998 128.762H488.172M469.998 128.762L475.65 127.051M451.824 128.762L446.758 130.405M451.824 128.762L457.099 127.051M451.824 128.762H433.649M464.571 130.405H446.758M464.571 130.405H482.383M464.571 130.405L459.355 131.984M446.758 130.405L441.891 131.984M446.758 130.405H428.946M449.513 134.963H432.704M449.513 134.963L444.863 136.37M449.513 134.963H466.321M449.513 134.963L454.34 133.502M432.704 134.963L428.365 136.37M432.704 134.963L437.209 133.502M432.704 134.963H415.895M444.863 136.37H428.365M444.863 136.37H461.362M444.863 136.37L440.382 137.726M428.365 136.37L424.183 137.726M428.365 136.37H411.866M431.891 140.297H416.257M431.891 140.297L427.864 141.516M431.891 140.297H447.524M431.891 140.297L436.061 139.034M416.257 140.297L412.498 141.516M416.257 140.297L420.149 139.034M416.257 140.297H400.623M427.864 141.516H412.498M427.864 141.516L423.972 142.694M427.864 141.516H443.229M412.498 141.516H397.133M412.498 141.516L408.866 142.694M503.477 72.304L493.352 76.9011M503.477 72.304L514.32 67.3812M503.477 72.304H472.868M503.477 72.304H514.595M493.352 76.9011L483.875 81.2037M493.352 76.9011H463.755M493.352 76.9011H514.595M493.557 89.0324H466.632M493.557 89.0324L484.905 92.6035M493.557 89.0324L502.747 85.2394M493.557 89.0324H514.595M466.632 89.0324L458.767 92.6035M466.632 89.0324L474.986 85.2394M466.632 89.0324H439.707M484.905 92.6035H458.767M484.905 92.6035H511.043M484.905 92.6035L476.744 95.9722M458.767 92.6035L451.347 95.9722M458.767 92.6035H432.628M461.737 102.166H437.705M461.737 102.166L454.822 105.02M461.737 102.166H485.769M461.737 102.166L469.033 99.1546M437.705 102.166L431.419 105.02M437.705 102.166L444.338 99.1546M437.705 102.166H413.673M454.822 105.02H431.419M454.822 105.02H478.226M454.822 105.02L448.26 107.729M431.419 105.02L425.453 107.729M431.419 105.02H408.015M436.091 112.752H414.39M436.091 112.752L430.438 115.085M436.091 112.752H457.791M436.091 112.752L442.024 110.303M414.39 112.752L409.251 115.085M414.39 112.752L419.784 110.303M414.39 112.752H392.689M430.438 115.085H409.251M430.438 115.085H451.625M430.438 115.085L425.047 117.31M409.251 115.085L404.351 117.31M409.251 115.085H388.065M414.98 121.465H395.199M414.98 121.465L410.274 123.408M414.98 121.465H434.762M414.98 121.465L419.9 119.434M395.199 121.465L390.92 123.408M395.199 121.465L399.671 119.434M395.199 121.465H375.418M410.274 123.408H390.92M410.274 123.408H429.627M410.274 123.408L405.766 125.268M390.92 123.408L386.822 125.268M390.92 123.408H371.566M397.301 128.762H379.127M397.301 128.762L393.321 130.405M397.301 128.762H415.475M397.301 128.762L401.446 127.051M379.127 128.762L378.666 128.971L375.508 130.405M379.127 128.762L382.895 127.051M379.127 128.762H360.952M393.321 130.405H375.508M393.321 130.405H411.133M393.321 130.405L389.496 131.984M375.508 130.405L372.031 131.984M375.508 130.405H357.696M382.278 134.963H365.469M382.278 134.963L378.869 136.37M382.278 134.963H399.087M382.278 134.963L385.818 133.502M365.469 134.963L362.37 136.37M365.469 134.963L366.662 134.421L368.688 133.502M365.469 134.963H348.661M378.869 136.37H362.37M378.869 136.37H395.367M378.869 136.37L375.583 137.726M362.37 136.37L359.383 137.726M362.37 136.37H345.871M369.356 140.297H353.722M369.356 140.297L366.402 141.516M369.356 140.297H384.989M369.356 140.297L372.414 139.034M353.722 140.297L351.699 141.215L351.367 141.366L351.037 141.516M353.722 140.297L356.502 139.034M353.722 140.297H338.088M366.402 141.516H351.037M366.402 141.516L363.549 142.694M366.402 141.516H381.767M351.037 141.516H335.671M351.037 141.516L348.443 142.694M492.387 19.9369H450.243M492.387 19.9369L479.117 28.5439M492.387 19.9369L506.968 10.4788M492.387 19.9369L514.595 19.9367M450.243 19.9369L438.869 28.5439M450.243 19.9369L462.742 10.4788M450.243 19.9369H408.1M479.117 28.5439H438.869M479.117 28.5439L466.989 36.4099M479.117 28.5439H514.595M438.869 28.5439L428.474 36.4099M438.869 28.5439H398.621M445.618 50.2714H410.156M445.618 50.2714L436.154 56.4096M445.618 50.2714H481.08M445.618 50.2714L455.862 43.6267M410.156 50.2714L402.044 56.4096M410.156 50.2714L418.937 43.6267M410.156 50.2714H374.694M436.154 56.4096H402.044M436.154 56.4096H470.264M436.154 56.4096L427.386 62.0968M402.044 56.4096L394.528 62.0968M402.044 56.4096H367.934M411.649 72.304H381.039M411.649 72.304L404.561 76.9011M411.649 72.304H442.258M411.649 72.304L419.239 67.3812M381.039 72.304L374.964 76.9011M381.039 72.304L387.545 67.3812M381.039 72.304H350.43M404.561 76.9011H374.964M404.561 76.9011H434.158M404.561 76.9011L397.927 81.2037M374.964 76.9011L369.278 81.2037M374.964 76.9011H345.367M385.858 89.0324H358.933M385.858 89.0324L380.352 92.6035M385.858 89.0324H412.782M385.858 89.0324L391.705 85.2394M358.933 89.0324L354.213 92.6035M358.933 89.0324L363.945 85.2394M358.933 89.0324H332.008M380.352 92.6035H354.213M380.352 92.6035H406.49M380.352 92.6035L375.158 95.9722M354.213 92.6035L349.762 95.9722M354.213 92.6035H328.075M365.608 102.166H341.576M365.608 102.166L361.208 105.02M365.608 102.166H389.641M365.608 102.166L370.252 99.1546M341.576 102.166L337.805 105.02M341.576 102.166L345.556 99.1546M341.576 102.166H317.544M361.208 105.02H337.805M361.208 105.02H384.612M361.208 105.02L357.032 107.729M337.805 105.02L334.225 107.729M337.805 105.02H314.401M349.288 112.752H327.587M349.288 112.752L345.691 115.085M349.288 112.752H370.989M349.288 112.752L353.064 110.303M327.587 112.752L324.504 115.085M327.587 112.752L330.824 110.303M327.587 112.752H305.887M345.691 115.085H324.504M345.691 115.085H366.878M345.691 115.085L342.26 117.31M324.504 115.085L321.564 117.31M324.504 115.085H303.317M335.854 121.465H316.073M335.854 121.465L332.859 123.408M335.854 121.465H355.636M335.854 121.465L338.985 119.434M316.073 121.465L313.505 123.408M316.073 121.465L318.756 119.434M316.073 121.465H296.291M332.859 123.408H313.505M332.859 123.408H352.213M332.859 123.408L329.991 125.268M313.505 123.408L311.047 125.268M313.505 123.408H294.152M324.604 128.762H306.429M324.604 128.762L322.071 130.405M324.604 128.762H342.778M324.604 128.762L327.241 127.051M306.429 128.762L306.707 128.552L308.69 127.051M306.429 128.762L304.258 130.405M306.429 128.762H288.255M322.071 130.405H304.258M322.071 130.405H339.883M322.071 130.405L319.637 131.984M304.258 130.405L302.172 131.984M304.258 130.405H286.446M315.044 134.963H298.235M315.044 134.963L312.874 136.37M315.044 134.963H331.852M315.044 134.963L317.296 133.502M298.235 134.963L296.375 136.37M298.235 134.963L298.95 134.421L299.433 134.056L300.166 133.502M298.235 134.963H281.426M312.874 136.37H296.375M312.874 136.37H329.373M312.874 136.37L310.783 137.726M296.375 136.37L295.695 136.885L295.247 137.224L294.583 137.726M296.375 136.37H279.877M306.82 140.297H291.186M306.82 140.297L305.404 141.215L304.941 141.516M306.82 140.297H322.454M306.82 140.297L308.519 139.195L308.766 139.034M291.186 140.297L289.973 141.215L289.774 141.366L289.575 141.516M291.186 140.297L292.013 139.671L292.854 139.034M291.186 140.297H275.552M304.941 141.516H289.575M304.941 141.516L303.125 142.694M304.941 141.516H320.306M289.575 141.516H274.21M289.575 141.516L288.019 142.694M323.813 19.9369H281.67M323.813 19.9369L318.126 28.5439M323.813 19.9369H365.956M323.813 19.9369L330.063 10.4788M281.67 19.9369L277.878 28.5439M281.67 19.9369L285.836 10.4788M281.67 19.9369H239.526M318.126 28.5439H277.878M318.126 28.5439H358.374M318.126 28.5439L312.929 36.4099M277.878 28.5439L274.413 36.4099M277.878 28.5439H237.631M303.769 50.2714H268.307M303.769 50.2714L299.714 56.4096M303.769 50.2714H339.232M303.769 50.2714L308.16 43.6267M268.307 50.2714L265.604 56.4096M268.307 50.2714L271.234 43.6267M268.307 50.2714H232.845M299.714 56.4096H265.604M299.714 56.4096H333.824M299.714 56.4096L295.956 62.0968M265.604 56.4096L263.098 62.0968M265.604 56.4096H231.493M289.211 72.304H258.602M289.211 72.304L286.174 76.9011M289.211 72.304H319.821M289.211 72.304L292.464 67.3812M258.602 72.304L256.577 76.9011M258.602 72.304L260.77 67.3812M258.602 72.304H227.993M286.174 76.9011H256.577M286.174 76.9011H315.771M286.174 76.9011L283.331 81.2037M256.577 76.9011L254.682 81.2037M256.577 76.9011H226.98M278.158 89.0324H251.233M278.158 89.0324L275.798 92.6035M278.158 89.0324H305.083M278.158 89.0324L280.664 85.2394M251.233 89.0324L249.66 92.6035M251.233 89.0324L252.904 85.2394M251.233 89.0324H224.308M275.798 92.6035H249.66M275.798 92.6035H301.936M275.798 92.6035L273.573 95.9722M249.66 92.6035L248.176 95.9722M249.66 92.6035H223.521M269.48 102.166H245.447M269.48 102.166L267.594 105.02M269.48 102.166H293.512M269.48 102.166L271.47 99.1546M245.447 102.166L244.19 105.02M245.447 102.166L246.774 99.1546M245.447 102.166H221.415M267.594 105.02H244.19M267.594 105.02H290.997M267.594 105.02L265.804 107.729M244.19 105.02L242.997 107.729M244.19 105.02H220.787M262.485 112.752H240.785M262.485 112.752L260.944 115.085M262.485 112.752H284.186M262.485 112.752L264.103 110.303M240.785 112.752L239.757 115.085M240.785 112.752L241.864 110.303M240.785 112.752H219.084M260.944 115.085H239.757M260.944 115.085H282.131M260.944 115.085L260.384 115.931L259.473 117.31M239.757 115.085L238.777 117.31M239.757 115.085H218.57M256.728 121.465H236.946M256.728 121.465L255.444 123.408M256.728 121.465H276.51M256.728 121.465L257.728 119.951L258.07 119.434M236.946 121.465L236.621 122.204L236.091 123.408M236.946 121.465L237.841 119.434M236.946 121.465H217.165M255.444 123.408L255.288 123.645L254.215 125.268M255.444 123.408H236.091M255.444 123.408H274.798M236.091 123.408L235.779 124.115L235.677 124.348L235.574 124.58L235.271 125.268M236.091 123.408H216.737M251.906 128.762H233.732M251.906 128.762L251.358 129.592L251.223 129.797L251.088 130.001L250.954 130.203L250.821 130.405M251.906 128.762H270.081M251.906 128.762L253.037 127.051M233.732 128.762L233.187 130.001L233.097 130.203L233.008 130.405M233.732 128.762L234.485 127.051M233.732 128.762H215.557M250.821 130.405H233.008M250.821 130.405H268.633M250.821 130.405L250.164 131.399L250.035 131.595L249.778 131.984M233.008 130.405L232.571 131.399L232.484 131.595L232.398 131.79L232.313 131.984M233.008 130.405H215.196M247.809 134.963H231M247.809 134.963L246.879 136.37M247.809 134.963H264.618M247.809 134.963L248.047 134.603L248.408 134.056L248.774 133.502M231 134.963L231.08 134.783L231.562 133.688L231.644 133.502M231 134.963L230.381 136.37M231 134.963H214.192M246.879 136.37H230.381M246.879 136.37H263.378M246.879 136.37L245.983 137.726M230.381 136.37L230.154 136.885L230.079 137.055L230.004 137.224L229.783 137.726M230.381 136.37H213.882M244.285 140.297H228.651M244.285 140.297L243.678 141.215L243.479 141.516M244.285 140.297H259.919M244.285 140.297L244.594 139.829L244.698 139.671L244.803 139.513L245.119 139.034M228.651 140.297L228.583 140.452L228.448 140.759L228.313 141.064L228.114 141.516M228.651 140.297L228.927 139.671L228.996 139.513L229.136 139.195L229.207 139.034M228.651 140.297H213.017M243.479 141.516H228.114M243.479 141.516L242.797 142.549L242.701 142.694M243.479 141.516H258.845M228.114 141.516L228.048 141.665L227.983 141.814L227.917 141.962L227.852 142.11L227.659 142.549L227.595 142.694M228.114 141.516H212.748M155.24 19.9369H113.097M155.24 19.9369L157.136 28.5439M155.24 19.9369H197.383M155.24 19.9369L153.157 10.4788M113.097 19.9369L116.888 28.5439M113.097 19.9369L108.93 10.4788M113.097 19.9369H70.9533M157.136 28.5439H116.888M157.136 28.5439H197.383M157.136 28.5439L158.868 36.4099M116.888 28.5439L120.353 36.4099M116.888 28.5439H76.6403M161.921 50.2714H126.459M161.921 50.2714L163.273 56.4096M161.921 50.2714H197.383M161.921 50.2714L160.458 43.6267M126.459 50.2714L129.163 56.4096M126.459 50.2714L123.532 43.6267M126.459 50.2714H90.9971M163.273 56.4096H129.163M163.273 56.4096H197.383M163.273 56.4096L164.526 62.0968M129.163 56.4096L131.668 62.0968M129.163 56.4096H95.0528M166.774 72.304H136.164M166.774 72.304L167.786 76.9011M166.774 72.304H197.383M166.774 72.304L165.69 67.3812M136.164 72.304L138.19 76.9011M136.164 72.304L133.996 67.3812M136.164 72.304H105.555M167.786 76.9011H138.19M167.786 76.9011H197.383M167.786 76.9011L168.734 81.2037M138.19 76.9011L140.085 81.2037M138.19 76.9011H108.593M170.458 89.0324H143.533M170.458 89.0324L171.245 92.6035M170.458 89.0324H197.383M170.458 89.0324L169.623 85.2394M143.533 89.0324L145.106 92.6035M143.533 89.0324L141.863 85.2394M143.533 89.0324H116.609M171.245 92.6035H145.106M171.245 92.6035H197.383M171.245 92.6035L171.987 95.9722M145.106 92.6035L146.59 95.9722M145.106 92.6035H118.968M173.351 102.166H149.319M173.351 102.166L173.98 105.02M173.351 102.166H197.383M173.351 102.166L172.688 99.1546M149.319 102.166L150.576 105.02M149.319 102.166L147.992 99.1546M149.319 102.166H125.287M173.98 105.02H150.576M173.98 105.02H197.383M173.98 105.02L174.576 107.729M150.576 105.02L151.769 107.729M150.576 105.02H127.172M175.683 112.752H153.982M175.683 112.752L176.196 115.085M175.683 112.752H197.383M175.683 112.752L175.143 110.303M153.982 112.752L155.01 115.085M153.982 112.752L152.903 110.303M153.982 112.752H132.281M176.196 115.085H155.01M176.196 115.085H197.383M176.196 115.085L176.687 117.31M155.01 115.085L155.99 117.31M155.01 115.085H133.823M177.602 121.465H157.82M177.602 121.465L178.03 123.408M177.602 121.465H197.383M177.602 121.465L177.154 119.434M157.82 121.465L158.571 123.169L158.676 123.408M157.82 121.465L156.926 119.434M157.82 121.465H138.039M178.03 123.408L178.082 123.645L178.439 125.268M178.03 123.408H158.676M178.03 123.408H197.383M158.676 123.408L158.987 124.115L159.09 124.348L159.192 124.58L159.495 125.268M158.676 123.408H139.322M179.209 128.762H161.034M179.209 128.762L179.571 130.405M179.209 128.762H197.383M179.209 128.762L179.07 128.129L179.022 127.916L178.975 127.701L178.88 127.269L178.832 127.051M161.034 128.762L161.58 130.001L161.758 130.405M161.034 128.762L160.281 127.051M161.034 128.762H142.86M179.571 130.405H161.758M179.571 130.405H197.383M179.571 130.405L179.918 131.984M161.758 130.405L162.196 131.399L162.282 131.595L162.368 131.79L162.454 131.984M161.758 130.405H143.946M180.575 134.963H163.766M180.575 134.963L180.885 136.37M180.575 134.963H197.383M180.575 134.963L180.253 133.502M163.766 134.963L163.687 134.783L163.204 133.688L163.122 133.502M163.766 134.963L164.386 136.37M163.766 134.963H146.958M180.885 136.37H164.386M180.885 136.37H197.383M180.885 136.37L181.183 137.726M164.386 136.37L164.613 136.885L164.687 137.055L164.762 137.224L164.983 137.726M164.386 136.37H147.887M181.749 140.297H166.115M181.749 140.297L182.018 141.516M181.749 140.297H197.383M181.749 140.297L181.471 139.034M166.115 140.297L166.184 140.452L166.319 140.759L166.386 140.912L166.52 141.215L166.586 141.366L166.653 141.516M166.115 140.297L165.84 139.671L165.77 139.513L165.63 139.195L165.56 139.034M166.115 140.297H150.482M182.018 141.516L182.051 141.665L182.084 141.814L182.116 141.962L182.277 142.694M182.018 141.516H166.653M182.018 141.516H197.383M166.653 141.516H151.287M166.653 141.516L166.784 141.814L166.849 141.962L166.914 142.11L167.107 142.549L167.172 142.694M-13.3334 19.9369H-55.4766M-13.3334 19.9369L-3.85475 28.5439M-13.3334 19.9369H28.8098M-13.3334 19.9369L-23.7492 10.4788M-55.4766 19.9369L-44.1023 28.5439M-55.4766 19.9369L-67.9754 10.4788M-55.4766 19.9369H-97.6202M-3.85475 28.5439H-44.1023M-3.85475 28.5439H36.3928M-3.85475 28.5439L4.80775 36.4099M-44.1023 28.5439L-33.7073 36.4099M-44.1023 28.5439H-84.3502M20.0729 50.2714H-15.3893M20.0729 50.2714L26.8325 56.4096M20.0729 50.2714H55.5348M20.0729 50.2714L12.7552 43.6267M-15.3893 50.2714L-7.27766 56.4096M-15.3893 50.2714L-24.1702 43.6267M-15.3893 50.2714H-50.8513M26.8325 56.4096H-7.27766M26.8325 56.4096H60.9426M26.8325 56.4096L33.0958 62.0968M-7.27766 56.4096L0.23826 62.0968M-7.27766 56.4096H-41.3878M44.3363 72.304H13.727M44.3363 72.304L49.3991 76.9011M44.3363 72.304H74.9459M44.3363 72.304L38.915 67.3812M13.727 72.304L19.802 76.9011M13.727 72.304L7.22155 67.3812M13.727 72.304H-16.8822M49.3991 76.9011H19.802M49.3991 76.9011H78.9959M49.3991 76.9011L54.1375 81.2037M19.802 76.9011L25.4883 81.2037M19.802 76.9011H-9.79452M62.7587 89.0324H35.8337M62.7587 89.0324L66.6915 92.6035M62.7587 89.0324H89.6837M62.7587 89.0324L58.5818 85.2394M35.8337 89.0324L40.5532 92.6035M35.8337 89.0324L30.8214 85.2394M35.8337 89.0324H8.90871M66.6915 92.6035H40.5532M66.6915 92.6035H92.83M66.6915 92.6035L70.4012 95.9722M40.5532 92.6035L45.0047 95.9722M40.5532 92.6035H14.415M77.2225 102.166H53.1905M77.2225 102.166L80.3656 105.02M77.2225 102.166H101.255M77.2225 102.166L73.906 99.1546M53.1905 102.166L56.962 105.02M53.1905 102.166L49.2104 99.1546M53.1905 102.166H29.158M80.3656 105.02H56.962M80.3656 105.02H103.769M80.3656 105.02L83.3483 107.729M56.962 105.02L60.5412 107.729M56.962 105.02H33.5584M88.8797 112.752H67.1792M88.8797 112.752L91.4492 115.085M88.8797 112.752H110.581M88.8797 112.752L86.1828 110.303M67.1792 112.752L70.2624 115.085M67.1792 112.752L63.9426 110.303M67.1792 112.752H45.4786M91.4492 115.085H70.2624M91.4492 115.085H112.636M91.4492 115.085L93.8996 117.31M70.2624 115.085L73.2029 117.31M70.2624 115.085H49.0756M98.4754 121.465L98.2015 121.216L97.9256 120.966L96.2394 119.434M98.4754 121.465H78.6939M98.4754 121.465L100.615 123.408M98.4754 121.465H118.257M78.6939 121.465L81.2611 123.408M78.6939 121.465L76.0105 119.434M78.6939 121.465H58.9122M100.615 123.408H81.2611M100.615 123.408H119.968M100.615 123.408L102.664 125.268M81.2611 123.408L83.7197 125.268M81.2611 123.408H61.9075M106.512 128.762H88.3372M106.512 128.762L108.321 130.405M106.512 128.762H124.686M106.512 128.762L104.628 127.051M88.3372 128.762L89.7045 129.797L90.5081 130.405M88.3372 128.762L86.0764 127.051M88.3372 128.762H70.1629M108.321 130.405H90.5081M108.321 130.405H126.133M108.321 130.405L109.845 131.79L110.059 131.984M90.5081 130.405L92.5944 131.984M90.5081 130.405H72.6957M113.34 134.963H96.5315M113.34 134.963L113.733 135.32L114.89 136.37M113.34 134.963H130.149M113.34 134.963L112.944 134.603L112.139 133.872L111.731 133.502M96.5315 134.963L98.3911 136.37M96.5315 134.963L95.8161 134.421L95.3334 134.056L94.6008 133.502M96.5315 134.963H79.7229M114.89 136.37H98.3911M114.89 136.37H131.389M114.89 136.37L116.015 137.392L116.384 137.726M98.3911 136.37L99.0711 136.885L99.5192 137.224L100.184 137.726M98.3911 136.37H81.8925M119.214 140.297H103.58M119.214 140.297L120.059 141.064L120.557 141.516M119.214 140.297H134.848M119.214 140.297L117.824 139.034M103.58 140.297L104.794 141.215L104.993 141.366L105.191 141.516M103.58 140.297L102.753 139.671L101.912 139.034M103.58 140.297H87.9466M120.557 141.516H105.191M120.557 141.516L121.211 142.11L121.533 142.403L121.694 142.549L121.854 142.694M120.557 141.516H135.922M105.191 141.516H89.8257M105.191 141.516L106.748 142.694M-109.608 56.4096H-75.498M-109.608 56.4096L-98.3346 62.0968M-109.608 56.4096H-119.828M-109.608 56.4096L-119.828 51.2537M-78.1011 72.304H-108.71M-78.1011 72.304L-68.9885 76.9011M-78.1011 72.304H-47.4918M-78.1011 72.304L-87.8593 67.3812M-108.71 72.304L-98.5854 76.9011M-108.71 72.304L-119.553 67.3812M-108.71 72.304H-119.828M-68.9885 76.9011H-98.5854M-68.9885 76.9011H-39.3917M-68.9885 76.9011L-60.4592 81.2037M-98.5854 76.9011L-89.1083 81.2037M-98.5854 76.9011H-119.828M-44.9409 89.0324H-71.8659M-44.9409 89.0324L-37.8618 92.6035M-44.9409 89.0324H-18.0159M-44.9409 89.0324L-52.4595 85.2394M-71.8659 89.0324L-64.0004 92.6035M-71.8659 89.0324L-80.2198 85.2394M-71.8659 89.0324H-98.7909M-37.8618 92.6035H-64.0004M-37.8618 92.6035H-11.7236M-37.8618 92.6035L-31.1845 95.9722M-64.0004 92.6035L-56.5809 95.9722M-64.0004 92.6035H-90.1386M-18.9061 102.166H-42.9382M-18.9061 102.166L-13.2489 105.02M-18.9061 102.166H5.12596M-18.9061 102.166L-24.876 99.1546M-42.9382 102.166L-36.6521 105.02M-42.9382 102.166L-49.5715 99.1546M-42.9382 102.166H-66.9706M-13.2489 105.02H-36.6521M-13.2489 105.02H10.1548M-13.2489 105.02L-7.87971 107.729M-36.6521 105.02L-30.6865 107.729M-36.6521 105.02H-60.0557M2.07712 112.752H-19.6235M2.07712 112.752L6.70179 115.085M2.07712 112.752H23.7777M2.07712 112.752L-2.77755 110.303M-19.6235 112.752L-14.485 115.085M-19.6235 112.752L-25.0177 110.303M-19.6235 112.752H-41.324M6.70179 115.085H-14.485M6.70179 115.085H27.8886M6.70179 115.085L11.1127 117.31M-14.485 115.085L-9.58405 117.31M-14.485 115.085H-35.6717M19.349 121.465H-0.43248M19.349 121.465L23.2001 123.408M19.349 121.465H39.1307M19.349 121.465L15.324 119.434M-0.43248 121.465L3.84656 123.408M-0.43248 121.465L-4.90484 119.434M-0.43248 121.465H-20.214M23.2001 123.408H3.84656M23.2001 123.408H42.5536M23.2001 123.408L26.888 125.268M3.84656 123.408L7.9442 125.268M3.84656 123.408H-15.5073M33.8144 128.762H15.6402M33.8144 128.762L37.0708 130.405M33.8144 128.762H51.9887M33.8144 128.762L30.4229 127.051M15.6402 128.762L19.2581 130.405M15.6402 128.762L11.8717 127.051M15.6402 128.762H-2.53436M37.0708 130.405H19.2581M37.0708 130.405H54.8832M37.0708 130.405L40.2 131.984M19.2581 130.405L22.7352 131.984M19.2581 130.405H1.44566M46.1057 134.963H29.2971M46.1057 134.963L48.8952 136.37M46.1057 134.963H62.9143M46.1057 134.963L45.3917 134.603L45.0325 134.421L43.2092 133.502M29.2971 134.963L32.3966 136.37M29.2971 134.963L26.0788 133.502M29.2971 134.963H12.4886M48.8952 136.37H32.3966M48.8952 136.37H65.3939M48.8952 136.37L51.5836 137.726M32.3966 136.37L35.3837 137.726M32.3966 136.37H15.898M56.6788 140.297H41.0449M56.6788 140.297L59.0952 141.516M56.6788 140.297H72.3127M56.6788 140.297L54.1765 139.034M41.0449 140.297L43.0675 141.215L43.3992 141.366L43.73 141.516M41.0449 140.297L38.2647 139.034M41.0449 140.297H25.4113M59.0952 141.516H43.73M59.0952 141.516L61.1422 142.549L61.43 142.694M59.0952 141.516H74.4605M43.73 141.516H28.3643M43.73 141.516L46.3238 142.694M-115.035 102.166L-106.863 105.02M-115.035 102.166H-91.0027M-115.035 102.166L-119.828 100.492M-115.035 102.166H-119.828M-106.863 105.02H-83.4593M-106.863 105.02L-99.1078 107.729M-106.863 105.02H-119.828M-84.7255 112.752H-106.426M-84.7255 112.752L-78.0452 115.085M-84.7255 112.752H-63.025M-84.7255 112.752L-91.7379 110.303M-106.426 112.752L-99.2323 115.085M-106.426 112.752L-113.978 110.303M-106.426 112.752H-119.828M-78.0452 115.085H-99.2323M-78.0452 115.085H-56.8585M-78.0452 115.085L-71.6742 117.31M-99.2323 115.085L-92.371 117.31M-99.2323 115.085H-119.828M-59.7771 121.465H-79.5589M-59.7771 121.465L-54.2147 123.408M-59.7771 121.465H-39.9957M-59.7771 121.465L-65.5914 119.434M-79.5589 121.465L-73.5683 123.408M-79.5589 121.465L-85.8199 119.434M-79.5589 121.465H-99.3404M-54.2147 123.408H-73.5683M-54.2147 123.408H-34.8609M-54.2147 123.408L-48.8876 125.268M-73.5683 123.408L-67.8317 125.268M-73.5683 123.408H-92.9221M-38.8829 128.762H-57.0571M-38.8829 128.762L-34.1792 130.405M-38.8829 128.762H-20.7086M-38.8829 128.762L-43.7814 127.051M-57.0571 128.762L-51.9919 130.405M-57.0571 128.762L-62.3327 127.051M-57.0571 128.762H-75.2317M-34.1792 130.405H-51.9919M-34.1792 130.405H-16.3667M-34.1792 130.405L-29.6592 131.984M-51.9919 130.405L-47.124 131.984M-51.9919 130.405H-69.8044M-21.1289 134.963H-37.9375M-21.1289 134.963L-17.0996 136.37M-21.1289 134.963H-4.32034M-21.1289 134.963L-25.3124 133.502M-37.9375 134.963L-33.5983 136.37M-37.9375 134.963L-42.4429 133.502M-37.9375 134.963H-54.7461M-17.0996 136.37H-33.5983M-17.0996 136.37H-0.600679M-17.0996 136.37L-13.2161 137.726M-33.5983 136.37L-29.4161 137.726M-33.5983 136.37H-50.0969M-5.85648 140.297H-21.4904M-5.85648 140.297L-2.36617 141.516M-5.85648 140.297H9.77741M-5.85648 140.297L-9.4707 139.034M-21.4904 140.297L-17.7314 141.516M-21.4904 140.297L-25.3828 139.034M-21.4904 140.297H-37.1243M-2.36617 141.516H-17.7314M-2.36617 141.516L1.00617 142.694M-2.36617 141.516H12.9991M-17.7314 141.516H-33.097M-17.7314 141.516L-14.0997 142.694M-111.58 128.762L-105.429 130.405M-111.58 128.762H-93.4059M-111.58 128.762L-117.986 127.051M-111.58 128.762H-119.828M-105.429 130.405H-87.6168M-105.429 130.405L-99.5185 131.984M-105.429 130.405H-119.828M-88.3632 134.963H-105.172M-88.3632 134.963L-83.0942 136.37M-88.3632 134.963H-71.5546M-88.3632 134.963L-93.8341 133.502M-105.172 134.963L-99.5928 136.37M-105.172 134.963L-110.965 133.502M-105.172 134.963H-119.828M-83.0942 136.37H-99.5928M-83.0942 136.37H-66.5955M-83.0942 136.37L-78.0158 137.726M-99.5928 136.37L-94.2158 137.726M-99.5928 136.37H-116.091M-68.3918 140.297H-84.0257M-68.3918 140.297L-63.8276 141.516M-68.3918 140.297H-52.7579M-68.3918 140.297L-73.1182 139.034M-84.0257 140.297L-79.1928 141.516M-84.0257 140.297L-89.03 139.034M-84.0257 140.297H-99.6596M-63.8276 141.516H-79.1928M-63.8276 141.516L-59.4177 142.694M-63.8276 141.516H-48.4623M-79.1928 141.516H-94.5584M-79.1928 141.516L-74.5235 142.694M-89.03 139.034L-94.2158 137.726M-89.03 139.034H-104.942M-89.03 139.034H-73.1182M-99.6596 140.297L-94.5584 141.516M-99.6596 140.297L-104.942 139.034M-99.6596 140.297H-115.293M-94.5584 141.516H-109.924M-94.5584 141.516L-89.6294 142.694M-74.5235 142.694H-59.4177M-74.5235 142.694H-89.6294M-74.5235 142.694L-70.0092 143.832M-104.942 139.034L-110.416 137.726M-104.942 139.034H-119.828M-115.293 140.297L-109.924 141.516M-115.293 140.297L-119.828 139.267M-115.293 140.297H-119.828M-109.924 141.516L-104.735 142.694M-109.924 141.516H-119.828M-89.6294 142.694H-104.735M-89.6294 142.694L-84.8643 143.832M-104.735 142.694L-99.7194 143.832M-104.735 142.694H-119.828M-94.2158 137.726H-110.416M-94.2158 137.726H-78.0158M-116.091 136.37L-110.416 137.726M-116.091 136.37L-119.828 135.477M-116.091 136.37H-119.828M-110.416 137.726H-119.828M-78.0158 137.726H-61.8159M-78.0158 137.726L-73.1182 139.034M-73.1182 139.034H-57.2064M-110.965 133.502L-116.983 131.984M-110.965 133.502H-93.8341M-110.965 133.502H-119.828M-119.88 134.963H-119.828M-116.983 131.984H-99.5185M-116.983 131.984L-119.828 131.266M-116.983 131.984H-119.828M-99.5185 131.984H-82.0537M-99.5185 131.984L-93.8341 133.502M-93.8341 133.502H-76.7037M-25.3828 139.034L-29.4161 137.726M-25.3828 139.034H-41.2946M-25.3828 139.034H-9.4707M-37.1243 140.297L-33.097 141.516M-37.1243 140.297L-41.2946 139.034M-37.1243 140.297H-52.7579M-33.097 141.516H-48.4623M-33.097 141.516L-29.2055 142.694M-14.0997 142.694H-29.2055M-14.0997 142.694L-10.5886 143.832M-14.0997 142.694H1.00617M-41.2946 139.034L-45.616 137.726M-41.2946 139.034H-57.2064M-52.7579 140.297L-48.4623 141.516M-52.7579 140.297L-57.2064 139.034M-48.4623 141.516L-44.3118 142.694M-29.2055 142.694H-44.3118M-29.2055 142.694L-25.4437 143.832M-57.2064 139.034L-61.8159 137.726M-59.4177 142.694H-44.3118M-59.4177 142.694L-55.1538 143.832M-44.3118 142.694L-40.2987 143.832M-29.4161 137.726H-45.616M-29.4161 137.726H-13.2161M-50.0969 136.37L-45.616 137.726M-50.0969 136.37L-54.7461 134.963M-50.0969 136.37H-66.5955M-45.616 137.726H-61.8159M-13.2161 137.726H2.98382M-13.2161 137.726L-9.4707 139.034M-61.8159 137.726L-66.5955 136.37M-9.4707 139.034H6.44106M-54.7461 134.963L-59.5733 133.502M-54.7461 134.963H-71.5546M-66.5955 136.37L-71.5546 134.963M-71.5546 134.963L-76.7037 133.502M-42.4429 133.502L-47.124 131.984M-42.4429 133.502H-59.5733M-42.4429 133.502H-25.3124M-59.5733 133.502L-64.5888 131.984M-59.5733 133.502H-76.7037M-76.7037 133.502L-82.0537 131.984M-47.124 131.984H-64.5888M-47.124 131.984H-29.6592M-69.8044 130.405L-64.5888 131.984M-69.8044 130.405L-75.2317 128.762M-69.8044 130.405H-87.6168M-64.5888 131.984H-82.0537M-29.6592 131.984H-12.1944M-29.6592 131.984L-25.3124 133.502M-82.0537 131.984L-87.6168 130.405M-25.3124 133.502H-8.18202M-75.2317 128.762L-80.884 127.051M-75.2317 128.762H-93.4059M-87.6168 130.405L-93.4059 128.762M-93.4059 128.762L-99.4349 127.051M-62.3327 127.051L-67.8317 125.268M-62.3327 127.051H-80.884M-62.3327 127.051H-43.7814M-80.884 127.051L-86.7755 125.268M-80.884 127.051H-99.4349M-99.4349 127.051L-105.719 125.268M-99.4349 127.051H-117.986M-117.986 127.051H-119.828M-117.986 127.051L-119.828 126.56M-67.8317 125.268H-86.7755M-67.8317 125.268H-48.8876M-92.9221 123.408L-86.7755 125.268M-92.9221 123.408L-99.3404 121.465M-92.9221 123.408H-112.276M-86.7755 125.268H-105.719M-48.8876 125.268H-29.9437M-48.8876 125.268L-43.7814 127.051M-105.719 125.268L-112.276 123.408M-105.719 125.268H-119.828M-43.7814 127.051H-25.2305M-99.3404 121.465L-106.049 119.434M-99.3404 121.465H-119.122M-112.276 123.408L-119.122 121.465M-112.276 123.408H-119.828M-119.927 125.268H-119.828M-119.122 121.465L-119.828 121.265M-119.122 121.465H-119.828M-85.8199 119.434L-92.371 117.31M-85.8199 119.434H-106.049M-85.8199 119.434H-65.5914M-106.049 119.434L-113.068 117.31M-106.049 119.434H-119.828M-119.999 121.216L-119.828 121.265M-92.371 117.31H-113.068M-92.371 117.31H-71.6742M-113.068 117.31H-119.828M-113.068 117.31L-119.828 115.264M-71.6742 117.31H-50.9775M-71.6742 117.31L-65.5914 119.434M-65.5914 119.434H-45.3626M-113.978 110.303H-91.7379M-113.978 110.303L-119.828 108.405M-113.978 110.303H-119.828M-119.989 112.752H-119.828M-91.7379 110.303H-69.4977M-91.7379 110.303L-99.1078 107.729M-119.893 108.385L-119.828 108.405M38.2647 139.034L35.3837 137.726M38.2647 139.034H22.3529M38.2647 139.034H54.1765M25.4113 140.297L28.3643 141.516M25.4113 140.297L22.3529 139.034M25.4113 140.297H9.77741M28.3643 141.516H12.9991M28.3643 141.516L31.2179 142.694M46.3238 142.694H31.2179M46.3238 142.694L47.2745 143.125L48.8321 143.832M46.3238 142.694H61.43M22.3529 139.034L19.1837 137.726M22.3529 139.034H6.44106M9.77741 140.297L12.9991 141.516M9.77741 140.297L6.44106 139.034M12.9991 141.516L16.1121 142.694M31.2179 142.694H16.1121M31.2179 142.694L33.9767 143.832M6.44106 139.034L2.98382 137.726M1.00617 142.694L4.26653 143.832M1.00617 142.694H16.1121M16.1121 142.694L16.4937 142.838L17.2527 143.125L19.1216 143.832M35.3837 137.726H19.1837M35.3837 137.726H51.5836M15.898 136.37L19.1837 137.726M15.898 136.37L12.4886 134.963M15.898 136.37H-0.600679M19.1837 137.726H2.98382M51.5836 137.726H67.7835M51.5836 137.726L54.1765 139.034M2.98382 137.726L-0.600679 136.37M54.1765 139.034H70.0886M12.4886 134.963L8.94836 133.502M12.4886 134.963H-4.32034M-0.600679 136.37L-1.05833 136.197L-4.32034 134.963M-4.32034 134.963L-8.18202 133.502M26.0788 133.502L25.6681 133.315L22.7352 131.984M26.0788 133.502H8.94836M26.0788 133.502H43.2092M8.94836 133.502L5.27036 131.984M8.94836 133.502H-8.18202M-8.18202 133.502L-12.1944 131.984M22.7352 131.984H5.27036M22.7352 131.984H40.2M1.44566 130.405L5.27036 131.984M1.44566 130.405L-2.53436 128.762M1.44566 130.405H-16.3667M5.27036 131.984H-12.1944M40.2 131.984H57.6648M40.2 131.984L43.2092 133.502M-12.1944 131.984L-16.3667 130.405M43.2092 133.502H60.3396M-2.53436 128.762L-6.67924 127.051M-2.53436 128.762H-20.7086M-16.3667 130.405L-20.7086 128.762M-20.7086 128.762L-25.2305 127.051M11.8717 127.051L7.9442 125.268M11.8717 127.051H-6.67924M11.8717 127.051H30.4229M-6.67924 127.051L-10.9999 125.268M-6.67924 127.051H-25.2305M-25.2305 127.051L-29.9437 125.268M7.9442 125.268H-10.9999M7.9442 125.268H26.888M-15.5073 123.408L-10.9999 125.268M-15.5073 123.408L-20.214 121.465M-15.5073 123.408H-34.8609M-10.9999 125.268H-29.9437M26.888 125.268H45.8318M26.888 125.268L30.4229 127.051M-29.9437 125.268L-34.8609 123.408M30.4229 127.051H48.9742M-20.214 121.465L-25.1337 119.434M-20.214 121.465H-39.9957M-34.8609 123.408L-39.9957 121.465M-39.9957 121.465L-45.3626 119.434M-4.90484 119.434L-9.58405 117.31M-4.90484 119.434H-25.1337M-4.90484 119.434H15.324M-25.1337 119.434L-30.2808 117.31M-25.1337 119.434H-45.3626M-45.3626 119.434L-50.9775 117.31M-9.58405 117.31H-30.2808M-9.58405 117.31H11.1127M-35.6717 115.085L-30.2808 117.31M-35.6717 115.085L-41.324 112.752M-35.6717 115.085H-56.8585M-30.2808 117.31H-50.9775M11.1127 117.31H31.8094M11.1127 117.31L15.324 119.434M-50.9775 117.31L-56.8585 115.085M15.324 119.434H35.5528M-41.324 112.752L-47.2576 110.303M-41.324 112.752H-63.025M-56.8585 115.085L-63.025 112.752M-63.025 112.752L-69.4977 110.303M-25.0177 110.303L-30.6865 107.729M-25.0177 110.303H-47.2576M-25.0177 110.303H-2.77755M-47.2576 110.303L-53.4937 107.729M-47.2576 110.303H-69.4977M-69.4977 110.303L-76.3006 107.729M-30.6865 107.729H-53.4937M-30.6865 107.729H-7.87971M-60.0557 105.02L-53.4937 107.729M-60.0557 105.02L-66.9706 102.166M-60.0557 105.02H-83.4593M-53.4937 107.729H-76.3006M-7.87971 107.729H14.9275M-7.87971 107.729L-2.77755 110.303M-76.3006 107.729L-83.4593 105.02M-76.3006 107.729H-99.1078M-2.77755 110.303H19.4626M-66.9706 102.166L-74.2668 99.1546M-66.9706 102.166H-91.0027M-83.4593 105.02L-91.0027 102.166M-99.1078 107.729H-119.828M-91.0027 102.166L-98.9624 99.1546M-49.5715 99.1546L-56.5809 95.9722M-49.5715 99.1546H-74.2668M-49.5715 99.1546H-24.876M-74.2668 99.1546L-81.9773 95.9722M-74.2668 99.1546H-98.9624M-98.9624 99.1546L-107.374 95.9722M-98.9624 99.1546H-119.828M-56.5809 95.9722H-81.9773M-56.5809 95.9722H-31.1845M-90.1386 92.6035L-81.9773 95.9722M-90.1386 92.6035L-98.7909 89.0324M-90.1386 92.6035H-116.277M-81.9773 95.9722H-107.374M-31.1845 95.9722H-5.78807M-31.1845 95.9722L-24.876 99.1546M-107.374 95.9722L-116.277 92.6035M-107.374 95.9722H-119.828M-24.876 99.1546H-0.180382M-98.7909 89.0324L-107.98 85.2394M-98.7909 89.0324H-119.828M-116.277 92.6035H-119.828M-116.277 92.6035L-119.828 91.2599M-80.2198 85.2394L-89.1083 81.2037M-80.2198 85.2394H-107.98M-80.2198 85.2394H-52.4595M-107.98 85.2394L-117.757 81.2037M-107.98 85.2394H-119.828M-89.1083 81.2037H-117.757M-89.1083 81.2037H-60.4592M-117.757 81.2037L-119.828 80.3491M-117.757 81.2037H-119.828M-60.4592 81.2037H-31.81M-60.4592 81.2037L-52.4595 85.2394M-52.4595 85.2394H-24.6992M-119.553 67.3812H-87.8593M-119.553 67.3812H-119.828M-119.553 67.3812L-119.828 67.2563M-87.8593 67.3812H-56.1659M-87.8593 67.3812L-98.3346 62.0968M101.912 139.034L101.271 138.55L101.056 138.386L100.184 137.726M101.912 139.034H86.0004M101.912 139.034H117.824M87.9466 140.297L89.3622 141.215L89.8257 141.516M87.9466 140.297L86.2472 139.195L86.0004 139.034M87.9466 140.297H72.3127M89.8257 141.516H74.4605M89.8257 141.516L91.6418 142.694M106.748 142.694H91.6418M106.748 142.694L107.318 143.125L108.252 143.832M106.748 142.694H121.854M86.0004 139.034L85.5027 138.712L83.9835 137.726M86.0004 139.034H70.0886M72.3127 140.297L74.4605 141.516M72.3127 140.297L70.0886 139.034M74.4605 141.516L76.0237 142.403L76.5359 142.694M91.6418 142.694H76.5359M91.6418 142.694L93.3974 143.832M70.0886 139.034L67.7835 137.726M61.43 142.694L61.7162 142.838L63.6872 143.832M61.43 142.694H76.5359M76.5359 142.694L77.2962 143.125L78.5423 143.832M100.184 137.726H83.9835M100.184 137.726H116.384M81.8925 136.37L83.9835 137.726M81.8925 136.37L79.7229 134.963M81.8925 136.37H65.3939M83.9835 137.726H67.7835M116.384 137.726H132.584M116.384 137.726L117.824 139.034M67.7835 137.726L65.3939 136.37M117.824 139.034H133.736M79.7229 134.963L78.3252 134.056L78.0413 133.872L77.4704 133.502M79.7229 134.963H62.9143M65.3939 136.37L62.9143 134.963M62.9143 134.963L60.3396 133.502M94.6008 133.502L92.5944 131.984M94.6008 133.502H77.4704M94.6008 133.502H111.731M77.4704 133.502L75.1296 131.984M77.4704 133.502H60.3396M60.3396 133.502L57.6648 131.984M92.5944 131.984H75.1296M92.5944 131.984H110.059M72.6957 130.405L74.2282 131.399L74.5299 131.595L75.1296 131.984M72.6957 130.405L70.1629 128.762M72.6957 130.405H54.8832M75.1296 131.984H57.6648M110.059 131.984H127.524M110.059 131.984L111.731 133.502M57.6648 131.984L54.8832 130.405M111.731 133.502H128.862M70.1629 128.762L67.5251 127.051M70.1629 128.762H51.9887M54.8832 130.405L51.9887 128.762M51.9887 128.762L48.9742 127.051M86.0764 127.051L84.9103 126.169L84.6152 125.946L83.7197 125.268M86.0764 127.051H67.5251M86.0764 127.051H104.628M67.5251 127.051L64.776 125.268M67.5251 127.051H48.9742M48.9742 127.051L45.8318 125.268M83.7197 125.268H64.776M83.7197 125.268H102.664M61.9075 123.408L64.776 125.268M61.9075 123.408L58.9122 121.465M61.9075 123.408H42.5536M64.776 125.268H45.8318M102.664 125.268H121.608M102.664 125.268L103.163 125.721L104.628 127.051M45.8318 125.268L42.5536 123.408M104.628 127.051H123.179M58.9122 121.465L55.7817 119.434M58.9122 121.465H39.1307M42.5536 123.408L39.1307 121.465M39.1307 121.465L35.5528 119.434M76.0105 119.434L73.2029 117.31M76.0105 119.434H55.7817M76.0105 119.434H96.2394M55.7817 119.434L52.5061 117.31M55.7817 119.434H35.5528M35.5528 119.434L31.8094 117.31M73.2029 117.31H52.5061M73.2029 117.31H93.8996M49.0756 115.085L52.5061 117.31M49.0756 115.085L45.4786 112.752M49.0756 115.085H27.8886M52.5061 117.31H31.8094M93.8996 117.31H114.596M93.8996 117.31L96.2394 119.434M31.8094 117.31L27.8886 115.085M96.2394 119.434H116.468M45.4786 112.752L41.7028 110.303M45.4786 112.752H23.7777M27.8886 115.085L23.7777 112.752M23.7777 112.752L19.4626 110.303M63.9426 110.303L60.5412 107.729M63.9426 110.303H41.7028M63.9426 110.303H86.1828M41.7028 110.303L37.7343 107.729M41.7028 110.303H19.4626M19.4626 110.303L14.9275 107.729M60.5412 107.729H37.7343M60.5412 107.729H83.3483M33.5584 105.02L37.7343 107.729M33.5584 105.02L29.158 102.166M33.5584 105.02H10.1548M37.7343 107.729H14.9275M83.3483 107.729H106.155M83.3483 107.729L86.1828 110.303M14.9275 107.729L10.1548 105.02M86.1828 110.303H108.423M29.158 102.166L24.5149 99.1546M29.158 102.166H5.12596M10.1548 105.02L5.12596 102.166M5.12596 102.166L-0.180382 99.1546M49.2104 99.1546L45.0047 95.9722M49.2104 99.1546H24.5149M49.2104 99.1546H73.906M24.5149 99.1546L19.6084 95.9722M24.5149 99.1546H-0.180382M-0.180382 99.1546L-5.78807 95.9722M45.0047 95.9722H19.6084M45.0047 95.9722H70.4012M14.415 92.6035L19.6084 95.9722M14.415 92.6035L8.90871 89.0324M14.415 92.6035H-11.7236M19.6084 95.9722H-5.78807M70.4012 95.9722H95.7976M70.4012 95.9722L73.906 99.1546M-5.78807 95.9722L-11.7236 92.6035M73.906 99.1546H98.6013M8.90871 89.0324L3.06114 85.2394M8.90871 89.0324H-18.0159M-11.7236 92.6035L-18.0159 89.0324M-18.0159 89.0324L-24.6992 85.2394M30.8214 85.2394L25.4883 81.2037M30.8214 85.2394H3.06114M30.8214 85.2394H58.5818M3.06114 85.2394L-3.16086 81.2037M3.06114 85.2394H-24.6992M-24.6992 85.2394L-31.81 81.2037M25.4883 81.2037H-3.16086M25.4883 81.2037H54.1375M-9.79452 76.9011L-3.16086 81.2037M-9.79452 76.9011L-16.8822 72.304M-9.79452 76.9011H-39.3917M-3.16086 81.2037H-31.81M54.1375 81.2037H82.7866M54.1375 81.2037L58.5818 85.2394M-31.81 81.2037L-39.3917 76.9011M58.5818 85.2394H86.342M-16.8822 72.304L-24.4722 67.3812M-16.8822 72.304H-47.4918M-39.3917 76.9011L-47.4918 72.304M-47.4918 72.304L-56.1659 67.3812M7.22155 67.3812L0.23826 62.0968M7.22155 67.3812H-24.4722M7.22155 67.3812H38.915M-24.4722 67.3812L-32.6192 62.0968M-24.4722 67.3812H-56.1659M-56.1659 67.3812L-65.477 62.0968M0.23826 62.0968H-32.6192M0.23826 62.0968H33.0958M-41.3878 56.4096L-32.6192 62.0968M-41.3878 56.4096L-50.8513 50.2714M-41.3878 56.4096H-75.498M-32.6192 62.0968H-65.477M33.0958 62.0968H65.9533M33.0958 62.0968L38.915 67.3812M-65.477 62.0968L-75.498 56.4096M-65.477 62.0968H-98.3346M38.915 67.3812H70.6087M-50.8513 50.2714L-61.0959 43.6267M-50.8513 50.2714H-86.3132M-75.498 56.4096L-86.3132 50.2714M-98.3346 62.0968H-119.828M-86.3132 50.2714L-98.0216 43.6267M-86.3132 50.2714H-119.828M-24.1702 43.6267L-33.7073 36.4099M-24.1702 43.6267H-61.0959M-24.1702 43.6267H12.7552M-61.0959 43.6267L-72.2224 36.4099M-61.0959 43.6267H-98.0216M-98.0216 43.6267L-110.738 36.4099M-98.0216 43.6267H-119.828M-33.7073 36.4099H-72.2224M-33.7073 36.4099H4.80775M-84.3502 28.5439L-72.2224 36.4099M-84.3502 28.5439L-97.6202 19.9369M-84.3502 28.5439H-119.828M-72.2224 36.4099H-110.738M4.80775 36.4099H43.3229M4.80775 36.4099L12.7552 43.6267M-110.738 36.4099H-119.828M-110.738 36.4099L-119.828 31.2505M12.7552 43.6267H49.681M-97.6202 19.9369L-112.202 10.4788M-97.6202 19.9369H-119.828M-67.9754 10.4788L-81.7741 0.0371343M-67.9754 10.4788H-112.202M-67.9754 10.4788H-23.7492M-112.202 10.4788L-119.828 5.53221M-112.202 10.4788H-119.828M-81.7741 0.0371343H-35.2478M-81.7741 0.0371343L-119.828 0.0373262M-35.2478 0.0371343H11.2782M-35.2478 0.0371343L-23.7492 10.4788M-23.7492 10.4788H20.4773M165.56 139.034L165.489 138.874L165.418 138.712L165.346 138.55L165.274 138.386L165.056 137.893L164.983 137.726M165.56 139.034H149.648M165.56 139.034H181.471M150.482 140.297L151.089 141.215L151.287 141.516M150.482 140.297L149.964 139.513L149.648 139.034M150.482 140.297H134.848M151.287 141.516H135.922M151.287 141.516L151.873 142.403L152.066 142.694M167.172 142.694L167.235 142.838L167.487 143.41L167.673 143.832M167.172 142.694H152.066M167.172 142.694H182.277M149.648 139.034L149.541 138.874L149.434 138.712L149.327 138.55L149.219 138.386L148.783 137.726M149.648 139.034H133.736M134.848 140.297L135.657 141.215L135.922 141.516M134.848 140.297L133.736 139.034M135.922 141.516L136.445 142.11L136.832 142.549L136.959 142.694M152.066 142.694L152.161 142.838L152.35 143.125L152.539 143.41L152.632 143.551L152.818 143.832M152.066 142.694H136.959M133.736 139.034L132.875 138.058L132.584 137.726M121.854 142.694L122.798 143.551L123.108 143.832M121.854 142.694H136.959M136.959 142.694L137.839 143.692L137.963 143.832M164.983 137.726H148.783M164.983 137.726H181.183M147.887 136.37L148.783 137.726M147.887 136.37L146.958 134.963M147.887 136.37H131.389M148.783 137.726H132.584M181.183 137.726H197.383M181.183 137.726L181.471 139.034M132.584 137.726L131.389 136.37M181.471 139.034H197.383M146.958 134.963L146.719 134.603L146.358 134.056L145.992 133.502M146.958 134.963H130.149M131.389 136.37L131.236 136.197L130.149 134.963M130.149 134.963L129.991 134.783L129.831 134.603L129.672 134.421L128.862 133.502M163.122 133.502L162.454 131.984M163.122 133.502H145.992M163.122 133.502H180.253M145.992 133.502L144.989 131.984M145.992 133.502H128.862M128.862 133.502L127.863 132.369L127.694 132.177L127.524 131.984M162.454 131.984H144.989M162.454 131.984H179.918M143.946 130.405L143.813 130.203L143.678 130.001L143.544 129.797L142.86 128.762M143.946 130.405L144.472 131.202L144.603 131.399L144.732 131.595L144.989 131.984M143.946 130.405H126.133M144.989 131.984H127.524M179.918 131.984H197.383M179.918 131.984L180.253 133.502M127.524 131.984L126.133 130.405M180.253 133.502H197.383M142.86 128.762L141.874 127.269L141.73 127.051M142.86 128.762H124.686M126.133 130.405L125.777 130.001L124.686 128.762M124.686 128.762L124.128 128.129L123.179 127.051M160.281 127.051L159.892 126.169L159.794 125.946L159.495 125.268M160.281 127.051H141.73M160.281 127.051H178.832M141.73 127.051L140.552 125.268M141.73 127.051H123.179M123.179 127.051L121.608 125.268M159.495 125.268H140.552M159.495 125.268H178.439M139.322 123.408L140.552 125.268M139.322 123.408L138.039 121.465M139.322 123.408H119.968M140.552 125.268H121.608M178.439 125.268H197.383M178.439 125.268L178.539 125.721L178.735 126.613L178.832 127.051M121.608 125.268L119.968 123.408M178.832 127.051H197.383M138.039 121.465L137.038 119.951L136.697 119.434M138.039 121.465H118.257M119.968 123.408L118.257 121.465M118.257 121.465L117.373 120.461L116.468 119.434M156.926 119.434L155.99 117.31M156.926 119.434H136.697M156.926 119.434H177.154M136.697 119.434L135.293 117.31M136.697 119.434H116.468M116.468 119.434L114.596 117.31M155.99 117.31H135.293M155.99 117.31H176.687M133.823 115.085L134.197 115.651L135.293 117.31M133.823 115.085L132.281 112.752M133.823 115.085H112.636M135.293 117.31H114.596M176.687 117.31H197.383M176.687 117.31L177.154 119.434M114.596 117.31L112.636 115.085M177.154 119.434H197.383M132.281 112.752L130.663 110.303M132.281 112.752H110.581M112.636 115.085L110.581 112.752M110.581 112.752L108.423 110.303M152.903 110.303L151.769 107.729M152.903 110.303H130.663M152.903 110.303H175.143M130.663 110.303L128.962 107.729M130.663 110.303H108.423M108.423 110.303L106.155 107.729M151.769 107.729H128.962M151.769 107.729H174.576M127.172 105.02L128.962 107.729M127.172 105.02L125.287 102.166M127.172 105.02H103.769M128.962 107.729H106.155M174.576 107.729H197.383M174.576 107.729L175.074 109.988L175.143 110.303M106.155 107.729L103.769 105.02M175.143 110.303H197.383M125.287 102.166L123.297 99.1546M125.287 102.166H101.255M103.769 105.02L101.896 102.894L101.255 102.166M101.255 102.166L98.6013 99.1546M147.992 99.1546L146.59 95.9722M147.992 99.1546H123.297M147.992 99.1546H172.688M123.297 99.1546L121.194 95.9722M123.297 99.1546H98.6013M98.6013 99.1546L95.7976 95.9722M146.59 95.9722H121.194M146.59 95.9722H171.987M118.968 92.6035L121.194 95.9722M118.968 92.6035L116.609 89.0324M118.968 92.6035H92.83M121.194 95.9722H95.7976M171.987 95.9722H197.383M171.987 95.9722L172.688 99.1546M95.7976 95.9722L92.83 92.6035M172.688 99.1546H197.383M116.609 89.0324L114.102 85.2394M116.609 89.0324H89.6837M92.83 92.6035L89.6837 89.0324M89.6837 89.0324L86.342 85.2394M141.863 85.2394L140.085 81.2037M141.863 85.2394H114.102M141.863 85.2394H169.623M114.102 85.2394L111.436 81.2037M114.102 85.2394H86.342M86.342 85.2394L82.7866 81.2037M140.085 81.2037H111.436M140.085 81.2037H168.734M108.593 76.9011L111.436 81.2037M108.593 76.9011L105.555 72.304M108.593 76.9011H78.9959M111.436 81.2037H82.7866M168.734 81.2037H197.383M168.734 81.2037L169.623 85.2394M82.7866 81.2037L78.9959 76.9011M169.623 85.2394H197.383M105.555 72.304L102.302 67.3812M105.555 72.304H74.9459M78.9959 76.9011L74.9459 72.304M74.9459 72.304L70.6087 67.3812M133.996 67.3812L131.668 62.0968M133.996 67.3812H102.302M133.996 67.3812H165.69M102.302 67.3812L98.8108 62.0968M102.302 67.3812H70.6087M70.6087 67.3812L65.9533 62.0968M131.668 62.0968H98.8108M131.668 62.0968H164.526M95.0528 56.4096L98.8108 62.0968M95.0528 56.4096L90.9971 50.2714M95.0528 56.4096H60.9426M98.8108 62.0968H65.9533M164.526 62.0968H197.383M164.526 62.0968L165.69 67.3812M65.9533 62.0968L60.9426 56.4096M165.69 67.3812H197.383M90.9971 50.2714L86.6064 43.6267M90.9971 50.2714H55.5348M60.9426 56.4096L55.5348 50.2714M55.5348 50.2714L49.681 43.6267M123.532 43.6267L120.353 36.4099M123.532 43.6267H86.6064M123.532 43.6267H160.458M86.6064 43.6267L81.838 36.4099M86.6064 43.6267H49.681M49.681 43.6267L43.3229 36.4099M120.353 36.4099H81.838M120.353 36.4099H158.868M76.6403 28.5439L81.838 36.4099M76.6403 28.5439L70.9533 19.9369M76.6403 28.5439H36.3928M81.838 36.4099H43.3229M158.868 36.4099H197.383M158.868 36.4099L160.458 43.6267M43.3229 36.4099L36.3928 28.5439M160.458 43.6267H197.383M70.9533 19.9369L64.7039 10.4788M70.9533 19.9369H28.8098M36.3928 28.5439L28.8098 19.9369M28.8098 19.9369L20.4773 10.4788M108.93 10.4788L104.331 0.0371343M108.93 10.4788H64.7039M108.93 10.4788H153.157M64.7039 10.4788L57.8046 0.0371343M64.7039 10.4788H20.4773M20.4773 10.4788L11.2782 0.0371343M57.8046 0.0371343H104.331M57.8046 0.0371343H11.2782M104.331 0.0371343H150.857M150.857 0.0371343H197.383M150.857 0.0371343L153.157 10.4788M153.157 10.4788H197.383M229.207 139.034L229.278 138.874L229.349 138.712L229.421 138.55L229.492 138.386L229.637 138.058L229.71 137.893L229.783 137.726M229.207 139.034H213.295M229.207 139.034H245.119M213.017 140.297L212.748 141.516M213.017 140.297L213.295 139.034M213.017 140.297H197.383M212.748 141.516L212.716 141.665L212.683 141.814L212.65 141.962L212.489 142.694M212.748 141.516H197.383M227.595 142.694L227.532 142.838L227.28 143.41L227.093 143.832M227.595 142.694H212.489M227.595 142.694H242.701M213.295 139.034L213.331 138.874L213.366 138.712L213.402 138.55L213.583 137.726M213.295 139.034H197.383M197.383 140.297V141.516M197.383 140.297V139.034M197.383 141.516V142.694M212.489 142.694H197.383M212.489 142.694L212.394 143.125L212.363 143.268L212.238 143.832M197.383 139.034V137.726M182.277 142.694L182.372 143.125L182.404 143.268L182.435 143.41L182.466 143.551L182.497 143.692L182.528 143.832M182.277 142.694H197.383M197.383 142.694V143.832M229.783 137.726H213.583M229.783 137.726H245.983M213.882 136.37L213.92 136.197L213.958 136.023L214.192 134.963M213.882 136.37L213.583 137.726M213.882 136.37H197.383M213.583 137.726H197.383M245.983 137.726H262.183M245.983 137.726L245.764 138.058L245.655 138.222L245.547 138.386L245.439 138.55L245.332 138.712L245.225 138.874L245.119 139.034M197.383 137.726V136.37M245.119 139.034H261.031M214.192 134.963L214.514 133.502M214.192 134.963H197.383M197.383 136.37V134.963M197.383 134.963V133.502M231.644 133.502L232.313 131.984M231.644 133.502H214.514M231.644 133.502H248.774M214.514 133.502L214.848 131.984M214.514 133.502H197.383M197.383 133.502V131.984M232.313 131.984H214.848M232.313 131.984H249.778M215.196 130.405L214.848 131.984M215.196 130.405L215.557 128.762M215.196 130.405H197.383M214.848 131.984H197.383M249.778 131.984H267.242M249.778 131.984L248.774 133.502M197.383 131.984V130.405M248.774 133.502H265.905M215.557 128.762L215.697 128.129L215.839 127.486L215.935 127.051M215.557 128.762H197.383M197.383 130.405V128.762M197.383 128.762V127.051M234.485 127.051L234.874 126.169L234.972 125.946L235.271 125.268M234.485 127.051H215.935M234.485 127.051H253.037M215.935 127.051L216.031 126.613L216.227 125.721L216.327 125.268M215.935 127.051H197.383M197.383 127.051V125.268M235.271 125.268H216.327M235.271 125.268H254.215M216.737 123.408L216.685 123.645L216.327 125.268M216.737 123.408L217.165 121.465M216.737 123.408H197.383M216.327 125.268H197.383M254.215 125.268H273.159M254.215 125.268L253.037 127.051M197.383 125.268V123.408M253.037 127.051H271.588M217.165 121.465L217.612 119.434M217.165 121.465H197.383M197.383 123.408V121.465M197.383 121.465V119.434M237.841 119.434L238.777 117.31M237.841 119.434H217.612M237.841 119.434H258.07M217.612 119.434L218.08 117.31M217.612 119.434H197.383M197.383 119.434V117.31M238.777 117.31H218.08M238.777 117.31H259.473M218.57 115.085L218.08 117.31M218.57 115.085L219.084 112.752M218.57 115.085H197.383M218.08 117.31H197.383M259.473 117.31H280.17M259.473 117.31L258.07 119.434M197.383 117.31V115.085M258.07 119.434H278.299M219.084 112.752L219.623 110.303M219.084 112.752H197.383M197.383 115.085V112.752M197.383 112.752V110.303M241.864 110.303L242.997 107.729M241.864 110.303H219.623M241.864 110.303H264.103M219.623 110.303L220.19 107.729M219.623 110.303H197.383M197.383 110.303V107.729M242.997 107.729H220.19M242.997 107.729H265.804M220.787 105.02L220.19 107.729M220.787 105.02L221.415 102.166M220.787 105.02H197.383M220.19 107.729H197.383M265.804 107.729H288.611M265.804 107.729L264.103 110.303M197.383 107.729V105.02M264.103 110.303H286.344M221.415 102.166L222.079 99.1546M221.415 102.166H197.383M197.383 105.02V102.166M197.383 102.166V99.1546M246.774 99.1546L248.176 95.9722M246.774 99.1546H222.079M246.774 99.1546H271.47M222.079 99.1546L222.78 95.9722M222.079 99.1546H197.383M197.383 99.1546V95.9722M248.176 95.9722H222.78M248.176 95.9722H273.573M223.521 92.6035L222.78 95.9722M223.521 92.6035L224.308 89.0324M223.521 92.6035H197.383M222.78 95.9722H197.383M273.573 95.9722H298.969M273.573 95.9722L271.47 99.1546M197.383 95.9722V92.6035M271.47 99.1546H296.165M224.308 89.0324L225.144 85.2394M224.308 89.0324H197.383M197.383 92.6035V89.0324M197.383 89.0324V85.2394M252.904 85.2394L254.682 81.2037M252.904 85.2394H225.144M252.904 85.2394H280.664M225.144 85.2394L226.032 81.2037M225.144 85.2394H197.383M197.383 85.2394V81.2037M254.682 81.2037H226.032M254.682 81.2037H283.331M226.98 76.9011L226.032 81.2037M226.98 76.9011L227.993 72.304M226.98 76.9011H197.383M226.032 81.2037H197.383M283.331 81.2037H311.98M283.331 81.2037L280.664 85.2394M197.383 81.2037V76.9011M280.664 85.2394H308.424M227.993 72.304L229.077 67.3812M227.993 72.304H197.383M197.383 76.9011V72.304M197.383 72.304V67.3812M260.77 67.3812L263.098 62.0968M260.77 67.3812H229.077M260.77 67.3812H292.464M229.077 67.3812L230.241 62.0968M229.077 67.3812H197.383M197.383 67.3812V62.0968M263.098 62.0968H230.241M263.098 62.0968H295.956M231.493 56.4096L230.241 62.0968M231.493 56.4096L232.845 50.2714M231.493 56.4096H197.383M230.241 62.0968H197.383M295.956 62.0968H328.813M295.956 62.0968L292.464 67.3812M197.383 62.0968V56.4096M292.464 67.3812H324.158M232.845 50.2714L234.309 43.6267M232.845 50.2714H197.383M197.383 56.4096V50.2714M197.383 50.2714V43.6267M271.234 43.6267L274.413 36.4099M271.234 43.6267H234.309M271.234 43.6267H308.16M234.309 43.6267L235.898 36.4099M234.309 43.6267H197.383M197.383 43.6267V36.4099M274.413 36.4099H235.898M274.413 36.4099H312.929M237.631 28.5439L235.898 36.4099M237.631 28.5439L239.526 19.9369M237.631 28.5439H197.383M235.898 36.4099H197.383M312.929 36.4099H351.444M312.929 36.4099L308.16 43.6267M197.383 36.4099V28.5439M308.16 43.6267H345.086M239.526 19.9369L241.61 10.4788M239.526 19.9369H197.383M197.383 28.5439V19.9369M197.383 19.9369V10.4788M285.836 10.4788L290.436 0.0371343M285.836 10.4788H241.61M285.836 10.4788H330.063M241.61 10.4788L243.91 0.0371343M241.61 10.4788H197.383M197.383 10.4788V0.0371343M243.91 0.0371343H290.436M243.91 0.0371343H197.383M290.436 0.0371343H336.962M336.962 0.0371343H383.488M336.962 0.0371343L330.063 10.4788M330.063 10.4788H374.289M292.854 139.034L293.711 138.386L294.583 137.726M292.854 139.034H276.943M292.854 139.034H308.766M275.552 140.297L274.21 141.516M275.552 140.297L276.943 139.034M275.552 140.297H259.919M274.21 141.516H258.845M274.21 141.516L273.233 142.403L272.913 142.694M288.019 142.694H272.913M288.019 142.694L287.449 143.125L286.514 143.832M288.019 142.694H303.125M276.943 139.034L278.383 137.726M276.943 139.034H261.031M259.919 140.297L258.845 141.516M259.919 140.297L261.031 139.034M258.845 141.516L258.321 142.11L257.935 142.549L257.807 142.694M272.913 142.694H257.807M272.913 142.694L271.969 143.551L271.659 143.832M261.031 139.034L261.891 138.058L262.183 137.726M242.701 142.694L242.606 142.838L242.416 143.125L242.135 143.551L241.948 143.832M242.701 142.694H257.807M257.807 142.694L257.68 142.838L257.427 143.125L256.804 143.832M294.583 137.726H278.383M294.583 137.726H310.783M279.877 136.37L279.687 136.542L279.498 136.714L278.751 137.392L278.383 137.726M279.877 136.37L281.034 135.32L281.426 134.963M279.877 136.37H263.378M278.383 137.726H262.183M310.783 137.726H326.983M310.783 137.726L309.264 138.712L308.766 139.034M262.183 137.726L263.378 136.37M308.766 139.034H324.678M281.426 134.963L281.624 134.783L281.823 134.603L282.425 134.056L282.628 133.872L283.035 133.502M281.426 134.963H264.618M263.378 136.37L263.53 136.197L264.618 134.963M264.618 134.963L264.776 134.783L264.935 134.603L265.095 134.421L265.905 133.502M300.166 133.502L302.172 131.984M300.166 133.502H283.035M300.166 133.502H317.296M283.035 133.502L284.707 131.984M283.035 133.502H265.905M265.905 133.502L267.242 131.984M302.172 131.984H284.707M302.172 131.984H319.637M286.446 130.405L284.707 131.984M286.446 130.405L288.255 128.762M286.446 130.405H268.633M284.707 131.984H267.242M319.637 131.984H337.102M319.637 131.984L317.296 133.502M267.242 131.984L268.633 130.405M317.296 133.502H334.427M288.255 128.762L290.139 127.051M288.255 128.762H270.081M268.633 130.405L268.99 130.001L270.081 128.762M270.081 128.762L270.639 128.129L271.205 127.486L271.588 127.051M308.69 127.051L309.856 126.169L311.047 125.268M308.69 127.051H290.139M308.69 127.051H327.241M290.139 127.051L292.103 125.268M290.139 127.051H271.588M271.588 127.051L273.159 125.268M311.047 125.268H292.103M311.047 125.268H329.991M294.152 123.408L292.103 125.268M294.152 123.408L296.291 121.465M294.152 123.408H274.798M292.103 125.268H273.159M329.991 125.268H348.935M329.991 125.268L327.241 127.051M273.159 125.268L274.798 123.408M327.241 127.051H345.792M296.291 121.465L296.841 120.966L298.527 119.434M296.291 121.465H276.51M274.798 123.408L276.51 121.465M276.51 121.465L276.729 121.216L277.394 120.461L278.299 119.434M318.756 119.434L321.564 117.31M318.756 119.434H298.527M318.756 119.434H338.985M298.527 119.434L300.867 117.31M298.527 119.434H278.299M278.299 119.434L280.17 117.31M321.564 117.31H300.867M321.564 117.31H342.26M303.317 115.085L301.772 116.488L300.867 117.31M303.317 115.085L305.887 112.752M303.317 115.085H282.131M300.867 117.31H280.17M342.26 117.31H362.957M342.26 117.31L338.985 119.434M280.17 117.31L282.131 115.085M338.985 119.434H359.214M305.887 112.752L308.584 110.303M305.887 112.752H284.186M282.131 115.085L284.186 112.752M284.186 112.752L286.344 110.303M330.824 110.303L334.225 107.729M330.824 110.303H308.584M330.824 110.303H353.064M308.584 110.303L311.418 107.729M308.584 110.303H286.344M286.344 110.303L288.611 107.729M334.225 107.729H311.418M334.225 107.729H357.032M314.401 105.02L311.418 107.729M314.401 105.02L317.544 102.166M314.401 105.02H290.997M311.418 107.729H288.611M357.032 107.729H379.839M357.032 107.729L353.064 110.303M288.611 107.729L290.997 105.02M353.064 110.303H375.304M317.544 102.166L320.86 99.1546M317.544 102.166H293.512M290.997 105.02L293.512 102.166M293.512 102.166L296.165 99.1546M345.556 99.1546L349.762 95.9722M345.556 99.1546H320.86M345.556 99.1546H370.252M320.86 99.1546L324.365 95.9722M320.86 99.1546H296.165M296.165 99.1546L298.969 95.9722M349.762 95.9722H324.365M349.762 95.9722H375.158M328.075 92.6035L324.365 95.9722M328.075 92.6035L332.008 89.0324M328.075 92.6035H301.936M324.365 95.9722H298.969M375.158 95.9722H400.555M375.158 95.9722L370.252 99.1546M298.969 95.9722L301.936 92.6035M370.252 99.1546H394.947M332.008 89.0324L336.185 85.2394M332.008 89.0324H305.083M301.936 92.6035L305.083 89.0324M305.083 89.0324L308.424 85.2394M363.945 85.2394L369.278 81.2037M363.945 85.2394H336.185M363.945 85.2394H391.705M336.185 85.2394L340.629 81.2037M336.185 85.2394H308.424M308.424 85.2394L311.98 81.2037M369.278 81.2037H340.629M369.278 81.2037H397.927M345.367 76.9011L340.629 81.2037M345.367 76.9011L350.43 72.304M345.367 76.9011H315.771M340.629 81.2037H311.98M397.927 81.2037H426.577M397.927 81.2037L391.705 85.2394M311.98 81.2037L315.771 76.9011M391.705 85.2394H419.466M350.43 72.304L355.851 67.3812M350.43 72.304H319.821M315.771 76.9011L319.821 72.304M319.821 72.304L324.158 67.3812M387.545 67.3812L394.528 62.0968M387.545 67.3812H355.851M387.545 67.3812H419.239M355.851 67.3812L361.671 62.0968M355.851 67.3812H324.158M324.158 67.3812L328.813 62.0968M394.528 62.0968H361.671M394.528 62.0968H427.386M367.934 56.4096L361.671 62.0968M367.934 56.4096L374.694 50.2714M367.934 56.4096H333.824M361.671 62.0968H328.813M427.386 62.0968H460.243M427.386 62.0968L419.239 67.3812M328.813 62.0968L333.824 56.4096M419.239 67.3812H450.932M374.694 50.2714L382.011 43.6267M374.694 50.2714H339.232M333.824 56.4096L339.232 50.2714M339.232 50.2714L345.086 43.6267M418.937 43.6267L428.474 36.4099M418.937 43.6267H382.011M418.937 43.6267H455.862M382.011 43.6267L389.959 36.4099M382.011 43.6267H345.086M345.086 43.6267L351.444 36.4099M428.474 36.4099H389.959M428.474 36.4099H466.989M398.621 28.5439L389.959 36.4099M398.621 28.5439L408.1 19.9369M398.621 28.5439H358.374M389.959 36.4099H351.444M466.989 36.4099H505.504M466.989 36.4099L455.862 43.6267M351.444 36.4099L358.374 28.5439M455.862 43.6267H492.788M408.1 19.9369L418.515 10.4788M408.1 19.9369H365.956M358.374 28.5439L365.956 19.9369M365.956 19.9369L374.289 10.4788M462.742 10.4788L476.541 0.0371343M462.742 10.4788H418.515M462.742 10.4788H506.968M418.515 10.4788L430.014 0.0371343M418.515 10.4788H374.289M374.289 10.4788L383.488 0.0371343M430.014 0.0371343H476.541M430.014 0.0371343H383.488M476.541 0.0371343L514.595 0.0373262M506.968 10.4788L514.595 5.53221M506.968 10.4788H514.595M356.502 139.034L359.383 137.726M356.502 139.034H340.59M356.502 139.034H372.414M338.088 140.297L335.671 141.516M338.088 140.297L340.59 139.034M338.088 140.297H322.454M335.671 141.516H320.306M335.671 141.516L333.336 142.694M348.443 142.694H333.336M348.443 142.694L347.492 143.125L345.934 143.832M348.443 142.694H363.549M340.59 139.034L343.183 137.726M340.59 139.034H324.678M322.454 140.297L320.306 141.516M322.454 140.297L324.678 139.034M320.306 141.516L318.743 142.403L318.231 142.694M333.336 142.694L333.05 142.838L331.079 143.832M333.336 142.694H318.231M324.678 139.034L326.983 137.726M303.125 142.694L301.369 143.832M303.125 142.694H318.231M318.231 142.694L317.47 143.125L316.224 143.832M359.383 137.726H343.183M359.383 137.726H375.583M345.871 136.37L343.183 137.726M345.871 136.37L348.661 134.963M345.871 136.37H329.373M343.183 137.726H326.983M375.583 137.726H391.783M375.583 137.726L372.414 139.034M326.983 137.726L329.373 136.37M372.414 139.034H388.325M348.661 134.963L349.375 134.603L351.557 133.502M348.661 134.963H331.852M329.373 136.37L331.852 134.963M331.852 134.963L334.427 133.502M368.688 133.502L369.098 133.315L372.031 131.984M368.688 133.502H351.557M368.688 133.502H385.818M351.557 133.502L354.567 131.984M351.557 133.502H334.427M334.427 133.502L334.755 133.315L337.102 131.984M372.031 131.984H354.567M372.031 131.984H389.496M357.696 130.405L354.567 131.984M357.696 130.405L360.952 128.762M357.696 130.405H339.883M354.567 131.984H337.102M389.496 131.984H406.961M389.496 131.984L385.818 133.502M337.102 131.984L339.883 130.405M385.818 133.502H402.949M360.952 128.762L364.344 127.051M360.952 128.762H342.778M339.883 130.405L342.778 128.762M342.778 128.762L345.792 127.051M382.895 127.051L386.822 125.268M382.895 127.051H364.344M382.895 127.051H401.446M364.344 127.051L367.879 125.268M364.344 127.051H345.792M345.792 127.051L348.935 125.268M386.822 125.268H367.879M386.822 125.268H405.766M371.566 123.408L367.879 125.268M371.566 123.408L375.418 121.465M371.566 123.408H352.213M367.879 125.268H348.935M405.766 125.268H424.71M405.766 125.268L401.446 127.051M348.935 125.268L352.213 123.408M401.446 127.051H419.997M375.418 121.465L379.443 119.434M375.418 121.465H355.636M352.213 123.408L355.636 121.465M355.636 121.465L359.214 119.434M399.671 119.434L404.351 117.31M399.671 119.434H379.443M399.671 119.434H419.9M379.443 119.434L383.654 117.31M379.443 119.434H359.214M359.214 119.434L362.957 117.31M404.351 117.31H383.654M404.351 117.31H425.047M388.065 115.085L383.654 117.31M388.065 115.085L392.689 112.752M388.065 115.085H366.878M383.654 117.31H362.957M425.047 117.31H445.744M425.047 117.31L419.9 119.434M362.957 117.31L366.878 115.085M419.9 119.434H440.129M392.689 112.752L397.544 110.303M392.689 112.752H370.989M366.878 115.085L370.989 112.752M370.989 112.752L375.304 110.303M419.784 110.303L425.453 107.729M419.784 110.303H397.544M419.784 110.303H442.024M397.544 110.303L402.646 107.729M397.544 110.303H375.304M375.304 110.303L379.839 107.729M425.453 107.729H402.646M425.453 107.729H448.26M408.015 105.02L402.646 107.729M408.015 105.02L413.673 102.166M408.015 105.02H384.612M402.646 107.729H379.839M448.26 107.729H471.067M448.26 107.729L442.024 110.303M379.839 107.729L384.612 105.02M442.024 110.303H464.264M413.673 102.166L419.642 99.1546M413.673 102.166H389.641M384.612 105.02L389.641 102.166M389.641 102.166L394.947 99.1546M444.338 99.1546L451.347 95.9722M444.338 99.1546H419.642M444.338 99.1546H469.033M419.642 99.1546L425.951 95.9722M419.642 99.1546H394.947M394.947 99.1546L400.555 95.9722M451.347 95.9722H425.951M451.347 95.9722H476.744M432.628 92.6035L425.951 95.9722M432.628 92.6035L439.707 89.0324M432.628 92.6035H406.49M425.951 95.9722H400.555M476.744 95.9722H502.14M476.744 95.9722L469.033 99.1546M400.555 95.9722L406.49 92.6035M469.033 99.1546H493.729M439.707 89.0324L447.226 85.2394M439.707 89.0324H412.782M406.49 92.6035L412.782 89.0324M412.782 89.0324L419.466 85.2394M474.986 85.2394L483.875 81.2037M474.986 85.2394H447.226M474.986 85.2394H502.747M447.226 85.2394L455.226 81.2037M447.226 85.2394H419.466M419.466 85.2394L426.577 81.2037M483.875 81.2037H455.226M483.875 81.2037H512.524M463.755 76.9011L455.226 81.2037M463.755 76.9011L472.868 72.304M463.755 76.9011H434.158M455.226 81.2037H426.577M512.524 81.2037L502.747 85.2394M512.524 81.2037H514.595M512.524 81.2037L514.595 80.3491M426.577 81.2037L434.158 76.9011M502.747 85.2394H514.595M472.868 72.304L482.626 67.3812M472.868 72.304H442.258M434.158 76.9011L442.258 72.304M442.258 72.304L450.932 67.3812M514.32 67.3812H482.626M514.32 67.3812H514.595M514.32 67.3812L514.595 67.2563M482.626 67.3812L493.101 62.0968M482.626 67.3812H450.932M450.932 67.3812L460.243 62.0968M504.375 56.4096L493.101 62.0968M504.375 56.4096H470.264M504.375 56.4096H514.595M504.375 56.4096L514.595 51.2537M493.101 62.0968H460.243M493.101 62.0968H514.595M460.243 62.0968L470.264 56.4096M470.264 56.4096L481.08 50.2714M481.08 50.2714L492.788 43.6267M481.08 50.2714H514.595M492.788 43.6267L505.504 36.4099M492.788 43.6267H514.595M505.504 36.4099H514.595M505.504 36.4099L514.595 31.2505M420.149 139.034L424.183 137.726M420.149 139.034H404.237M420.149 139.034H436.061M400.623 140.297L397.133 141.516M400.623 140.297L404.237 139.034M400.623 140.297H384.989M397.133 141.516H381.767M397.133 141.516L393.76 142.694M408.866 142.694H393.76M408.866 142.694L405.355 143.832M408.866 142.694H423.972M404.237 139.034L407.983 137.726M404.237 139.034H388.325M384.989 140.297L381.767 141.516M384.989 140.297L388.325 139.034M381.767 141.516L378.654 142.694M393.76 142.694L393.347 142.838L390.5 143.832M393.76 142.694H378.654M388.325 139.034L391.783 137.726M363.549 142.694L360.79 143.832M363.549 142.694H378.654M378.654 142.694L378.273 142.838L375.645 143.832M424.183 137.726H407.983M424.183 137.726H440.382M411.866 136.37L407.983 137.726M411.866 136.37L415.895 134.963M411.866 136.37H395.367M407.983 137.726H391.783M440.382 137.726H456.582M440.382 137.726L436.061 139.034M391.783 137.726L395.367 136.37M436.061 139.034H451.973M415.895 134.963L420.079 133.502M415.895 134.963H399.087M395.367 136.37L395.825 136.197L399.087 134.963M399.087 134.963L402.949 133.502M437.209 133.502L441.891 131.984M437.209 133.502H420.079M437.209 133.502H454.34M420.079 133.502L424.426 131.984M420.079 133.502H402.949M402.949 133.502L406.961 131.984M441.891 131.984H424.426M441.891 131.984H459.355M428.946 130.405L424.426 131.984M428.946 130.405L433.649 128.762M428.946 130.405H411.133M424.426 131.984H406.961M459.355 131.984H476.82M459.355 131.984L454.34 133.502M406.961 131.984L411.133 130.405M454.34 133.502H471.47M433.649 128.762L438.548 127.051M433.649 128.762H415.475M411.133 130.405L415.475 128.762M415.475 128.762L419.997 127.051M457.099 127.051L462.598 125.268M457.099 127.051H438.548M457.099 127.051H475.65M438.548 127.051L443.654 125.268M438.548 127.051H419.997M419.997 127.051L424.71 125.268M462.598 125.268H443.654M462.598 125.268H481.542M448.981 123.408L443.654 125.268M448.981 123.408L454.544 121.465M448.981 123.408H429.627M443.654 125.268H424.71M481.542 125.268H500.486M481.542 125.268L475.65 127.051M424.71 125.268L429.627 123.408M475.65 127.051H494.201M454.544 121.465L460.358 119.434M454.544 121.465H434.762M429.627 123.408L434.762 121.465M434.762 121.465L440.129 119.434M480.587 119.434L487.137 117.31M480.587 119.434H460.358M480.587 119.434H500.815M460.358 119.434L466.441 117.31M460.358 119.434H440.129M440.129 119.434L445.744 117.31M487.137 117.31H466.441M472.812 115.085L466.441 117.31M472.812 115.085L479.492 112.752M472.812 115.085H451.625M466.441 117.31H445.744M445.744 117.31L451.625 115.085M500.815 119.434H514.595M479.492 112.752L486.504 110.303M479.492 112.752H457.791M451.625 115.085L457.791 112.752M457.791 112.752L464.264 110.303M508.745 110.303H486.504M508.745 110.303H514.595M508.745 110.303L514.595 108.405M486.504 110.303L493.874 107.729M486.504 110.303H464.264M464.264 110.303L471.067 107.729M501.629 105.02L493.874 107.729M501.629 105.02L509.801 102.166M501.629 105.02H478.226M501.629 105.02H514.595M493.874 107.729H471.067M493.874 107.729H514.595M471.067 107.729L478.226 105.02M514.659 108.385L514.595 108.405M509.801 102.166H485.769M509.801 102.166H514.595M509.801 102.166L514.595 100.492M478.226 105.02L485.769 102.166M485.769 102.166L493.729 99.1546M493.729 99.1546L502.14 95.9722M493.729 99.1546H514.595M511.043 92.6035L502.14 95.9722M511.043 92.6035H514.595M511.043 92.6035L514.595 91.2599M502.14 95.9722H514.595M483.797 139.034L488.982 137.726M483.797 139.034H467.885M483.797 139.034H499.709M463.158 140.297L458.594 141.516M463.158 140.297L467.885 139.034M463.158 140.297H447.524M458.594 141.516H443.229M458.594 141.516L454.184 142.694M469.29 142.694H454.184M469.29 142.694L464.776 143.832M469.29 142.694H484.396M467.885 139.034L472.782 137.726M467.885 139.034H451.973M447.524 140.297L443.229 141.516M447.524 140.297L451.973 139.034M443.229 141.516L439.078 142.694M454.184 142.694H439.078M454.184 142.694L449.92 143.832M451.973 139.034L456.582 137.726M423.972 142.694L420.21 143.832M423.972 142.694H439.078M439.078 142.694L435.065 143.832M488.982 137.726H472.782M488.982 137.726H505.182M477.861 136.37L472.782 137.726M477.861 136.37L483.13 134.963M477.861 136.37H461.362M472.782 137.726H456.582M505.182 137.726L499.709 139.034M505.182 137.726H514.595M456.582 137.726L461.362 136.37M499.709 139.034H514.595M483.13 134.963L488.601 133.502M483.13 134.963H466.321M461.362 136.37L466.321 134.963M466.321 134.963L471.47 133.502M505.731 133.502L511.75 131.984M505.731 133.502H488.601M505.731 133.502H514.595M488.601 133.502L494.285 131.984M488.601 133.502H471.47M471.47 133.502L476.82 131.984M500.196 130.405L494.285 131.984M500.196 130.405L506.347 128.762M500.196 130.405H482.383M500.196 130.405H514.595M494.285 131.984H511.75M494.285 131.984H476.82M511.75 131.984L514.595 131.266M511.75 131.984H514.595M476.82 131.984L482.383 130.405M506.347 128.762L512.753 127.051M506.347 128.762H488.172M506.347 128.762H514.595M482.383 130.405L488.172 128.762M488.172 128.762L494.201 127.051M512.753 127.051H494.201M512.753 127.051L514.595 126.56M512.753 127.051H514.595M494.201 127.051L500.486 125.268M507.042 123.408L500.486 125.268M507.042 123.408L513.888 121.465M507.042 123.408H514.595M500.486 125.268H514.595M514.694 125.268H514.595M513.888 121.465H514.595M513.888 121.465L514.595 121.265M514.766 121.216L514.595 121.265M510.06 140.297L504.69 141.516M510.06 140.297H514.595M510.06 140.297L514.595 139.267M504.69 141.516L499.502 142.694M504.69 141.516H514.595M484.396 142.694L479.631 143.832M484.396 142.694H499.502M499.502 142.694L494.486 143.832M499.502 142.694H514.595M-10.5886 143.832H-25.4437M-10.5886 143.832H4.26653M-21.8046 144.934L-22.7031 144.662L-25.4437 143.832M-21.8046 144.934H-36.4172M-25.4437 143.832H-40.2987M-36.4172 144.934L-37.3754 144.662L-37.8578 144.525L-40.2987 143.832M-40.2987 143.832H-55.1538M-55.1538 143.832H-70.0092M4.26653 143.832H19.1216M-70.0092 143.832H-84.8643M-84.8643 143.832L-80.2545 144.934M-84.8643 143.832H-99.7194M-80.2545 144.934H-94.867M48.8321 143.832H33.9767M48.8321 143.832H63.6872M36.6456 144.934L35.9867 144.662L35.655 144.525L33.9767 143.832M36.6456 144.934H22.033M33.9767 143.832H19.1216M22.033 144.934L19.1216 143.832M63.6872 143.832H78.5423M108.252 143.832H93.3974M108.252 143.832H123.108M95.0957 144.934L94.8863 144.798L94.6764 144.662L94.4653 144.525L93.3974 143.832M95.0957 144.934H80.4832M93.3974 143.832H78.5423M80.4832 144.934L78.5423 143.832M123.108 143.832H137.963M167.673 143.832H152.818M167.673 143.832H182.528M153.546 144.934L152.818 143.832M153.546 144.934H138.933M152.818 143.832H137.963M138.933 144.934L138.813 144.798L138.694 144.662L138.573 144.525L137.963 143.832M182.528 143.832H197.383M227.093 143.832H212.238M227.093 143.832H241.948M211.996 144.934L212.238 143.832M211.996 144.934H197.383M212.238 143.832H197.383M197.383 144.934V143.832M241.948 143.832H256.804M286.514 143.832H271.659M286.514 143.832H301.369M270.446 144.934L270.745 144.662L271.352 144.111L271.659 143.832M270.446 144.934H255.833M271.659 143.832H256.804M255.833 144.934L255.953 144.798L256.073 144.662L256.194 144.525L256.804 143.832M301.369 143.832H316.224M345.934 143.832H331.079M345.934 143.832H360.79M328.896 144.934L329.435 144.662L329.706 144.525L331.079 143.832M328.896 144.934H314.283M331.079 143.832H316.224M314.283 144.934L314.523 144.798L316.224 143.832M360.79 143.832H375.645M405.355 143.832H390.5M405.355 143.832H420.21M387.346 144.934L388.125 144.662L388.517 144.525L390.5 143.832M387.346 144.934H372.733M390.5 143.832H375.645M372.733 144.934L373.092 144.798L375.645 143.832M420.21 143.832H435.065M464.776 143.832H449.92M464.776 143.832H479.631M445.796 144.934L449.92 143.832M445.796 144.934H431.184M449.92 143.832H435.065M431.184 144.934L432.142 144.662L432.624 144.525L435.065 143.832M479.631 143.832H494.486M504.246 144.934L509.341 143.832M504.246 144.934H489.634M504.246 144.934H514.595M509.341 143.832H494.486M509.341 143.832L514.595 142.696M509.341 143.832H514.595M489.634 144.934L490.832 144.662L494.486 143.832M-94.867 144.934L-96.0652 144.662L-99.7194 143.832M-99.7194 143.832H-114.574M-114.574 143.832L-119.828 142.696M-114.574 143.832H-119.828M-119.828 91.2599V92.6035M-119.828 91.2599V89.0324M-119.828 92.6035V95.9722M-119.828 89.0324V88.3668V85.2394M-119.828 85.2394V81.2037M-119.828 117.31V119.434M-119.828 117.31V115.264M-119.828 144.934V143.832M-119.828 143.832V142.696M-119.828 142.696L-119.841 142.694H-119.828M-119.828 142.696V142.694M-119.828 142.694V141.516M-119.828 141.516V140.297M-119.828 140.297V139.267M-119.828 139.267V139.034M-119.828 139.034V137.726M-119.828 137.726V136.37M-119.828 136.37V135.477M-119.828 135.477V134.963M-119.828 134.963V133.502M-119.828 133.502V131.984M-119.828 131.984V131.266M-119.828 131.266V130.405M-119.828 130.405V128.762M-119.828 128.762V127.051M-119.828 127.051V126.56M-119.828 126.56V125.268M-119.828 125.268V123.408M-119.828 123.408V121.465M-119.828 121.465V121.265M-119.828 121.265V119.434M-119.828 115.085V112.752M-119.828 115.085V115.264M-119.828 112.752V110.303M-119.828 110.303V108.405M-119.828 108.405V107.729M-119.828 107.729V105.02M-119.828 105.02V102.166M-119.828 102.166V100.492M-119.828 100.492V99.1546M-119.828 99.1546V95.9722M-119.828 81.2037V80.3491M-119.828 80.3491V76.9011M-119.828 76.9011V72.304M-119.828 72.304V67.3812M-119.828 67.3812V67.2563M-119.828 67.2563V62.0968M-119.828 62.0968V56.4096M-119.828 56.4096V51.2537M-119.828 51.2537V50.2714M-119.828 50.2714V43.6267M-119.828 43.6267V36.4099M-119.828 36.4099V31.2505M-119.828 31.2505V28.5439M-119.828 28.5439V19.9369M-119.828 19.9369V10.4788M-119.828 10.4788V5.53221M-119.828 5.53221V0.0373262M-119.828 0.0373262V4.19687e-05H514.595V0.0373262M514.595 115.085V112.752M514.595 115.085V115.264M514.595 115.264V117.31M514.595 117.31V119.434M514.595 119.434V121.265M514.595 121.265V121.465M514.595 121.465V123.408M514.595 123.408V125.268M514.595 125.268V126.56M514.595 126.56V127.051M514.595 127.051V128.762M514.595 128.762V130.405M514.595 130.405V131.266M514.595 131.266V131.984M514.595 131.984V133.502M514.595 133.502V134.963M514.595 134.963V135.477M514.595 135.477V136.37M514.595 136.37V137.726M514.595 137.726V139.034M514.595 139.034V139.267M514.595 139.267V140.297M514.595 140.297V141.516M514.595 141.516V142.694M514.595 142.694H514.608L514.595 142.696M514.595 142.694V142.696M514.595 142.696V143.832M514.595 143.832V144.934M514.595 0.0373262V5.53221M514.595 5.53221V10.4788M514.595 10.4788V19.9367M514.595 19.9367V28.5439M514.595 28.5439V31.2505M514.595 31.2505V36.4099M514.595 36.4099V43.6267M514.595 43.6267V50.2714M514.595 50.2714V51.2537M514.595 51.2537V56.4096M514.595 56.4096V62.0968M514.595 62.0968V67.2563M514.595 67.2563V67.3812M514.595 67.3812V72.304M514.595 72.304V76.9011M514.595 76.9011V80.3491M514.595 80.3491V81.2037M514.595 81.2037V85.2394M514.595 85.2394V89.0324M514.595 89.0324V91.2599M514.595 91.2599V92.6035M514.595 92.6035V95.9722M514.595 95.9722V99.1546M514.595 99.1546V100.492M514.595 100.492V102.166M514.595 102.166V105.02M514.595 105.02V107.729M514.595 107.729V108.405M514.595 108.405V110.303M514.595 110.303V112.752" stroke="url(#paint0_radial_25425_2277)" stroke-opacity="0.2" stroke-width="0.383682" stroke-miterlimit="10" stroke-linecap="round" stroke-linejoin="round"/>
<defs>
<radialGradient id="paint0_radial_25425_2277" cx="0" cy="0" r="1" gradientUnits="userSpaceOnUse" gradientTransform="translate(197.383 5.38114) rotate(90) scale(228.544 993.641)">
<stop stop-color="#CED2DF"/>
<stop offset="0.489074" stop-color="#CED2DF" stop-opacity="0"/>
</radialGradient>
</defs>
</svg>
