<svg width="97" height="35" viewBox="0 0 97 35" fill="none" xmlns="http://www.w3.org/2000/svg">
<g clip-path="url(#clip0_29461_1452)">
<path d="M26.8027 10.218H31.3376C34.2288 10.218 36.6171 12.2681 36.6171 16.949V17.9325C36.6171 22.649 34.3835 24.7702 31.4247 24.7702H26.8027V10.218ZM29.3361 12.8606V22.1157H31.2796C32.9234 22.1157 34.0257 20.8003 34.0257 17.8733V17.103C34.0257 14.176 32.8654 12.8606 31.1926 12.8606H29.3361ZM37.9611 13.0028H39.9917L40.3204 15.7402C40.7072 13.8797 41.6935 12.8843 43.4823 12.8843H44.1108V16.0246H43.0665C41.0069 16.0246 40.5041 16.9016 40.5041 19.3901V24.8058H37.9998V13.0028H37.9611ZM44.6136 19.1413V18.8095C44.6136 14.8633 46.6731 12.7065 49.4772 12.7065C52.3394 12.7065 54.3409 14.8633 54.3409 18.8095V19.1413C54.3409 23.0163 52.3974 25.102 49.4772 25.102C46.3734 25.0665 44.6136 23.0282 44.6136 19.1413ZM51.7785 19.1057V18.8095C51.7785 16.6172 50.8793 15.3018 49.4482 15.3018C48.0462 15.3018 47.1179 16.5105 47.1179 18.8095V19.1057C47.1179 21.2269 48.0172 22.4357 49.4482 22.4357C50.8793 22.4001 51.7785 21.2269 51.7785 19.1057ZM55.6559 13.0028H57.7445L57.9862 15.2307C58.489 13.7375 59.5623 12.7065 61.1481 12.7065C63.5944 12.7065 65.2092 14.8633 65.2092 18.8569V19.1887C65.2092 23.0637 63.4204 25.1139 61.1481 25.1139C59.63 25.1139 58.5857 24.2725 58.0733 22.9215V28.8823H55.6269L55.6559 13.0028ZM62.6662 19.1057V18.845C62.6662 16.4987 61.6799 15.3373 60.3649 15.3373C58.9628 15.3373 58.0346 16.6527 58.0346 18.845V19.0702C58.0346 21.1558 58.9338 22.4712 60.3359 22.4712C61.7766 22.4357 62.6662 21.3099 62.6662 19.1057ZM68.9125 22.6253L68.6998 24.782H66.5532V9.05664H68.9996V15.0885C69.541 13.5479 70.6143 12.7065 72.1324 12.7065C74.4337 12.7421 76.1355 14.6856 76.1355 18.5962V18.9635C76.1355 22.8741 74.5207 25.1139 72.0744 25.1139C70.4596 25.0665 69.4153 24.154 68.9125 22.6253ZM73.5635 18.9635V18.6673C73.5635 16.5105 72.6062 15.3018 71.2622 15.3018C69.8891 15.3018 68.9319 16.6527 68.9319 18.7028V18.9635C68.9319 21.1558 69.8601 22.4357 71.2332 22.4357C72.7029 22.4357 73.5635 21.3099 73.5635 18.9635ZM77.2088 19.1413V18.8095C77.2088 14.8633 79.2684 12.7065 82.0725 12.7065C84.9346 12.7065 86.9361 14.8633 86.9361 18.8095V19.1413C86.9361 23.0163 84.9636 25.102 82.0725 25.102C78.9686 25.0665 77.2088 23.0282 77.2088 19.1413ZM84.3931 19.1057V18.8095C84.3931 16.6172 83.4939 15.3018 82.0628 15.3018C80.6608 15.3018 79.7325 16.5105 79.7325 18.8095V19.1057C79.7325 21.2269 80.6317 22.4357 82.0628 22.4357C83.5035 22.4001 84.3931 21.2269 84.3931 19.1057ZM90.214 18.6673L86.8394 13.0028H89.7306L91.6741 16.5461L93.6466 13.0028H96.5087L93.0858 18.6317L96.6924 24.782H93.8594L91.6547 20.8714L89.5082 24.782H86.5494L90.214 18.6673Z" fill="black"/>
<path d="M11.2164 10.2176L5.6082 14.6023L11.2164 18.9869L5.6082 23.3715L0 18.9632L5.6082 14.5786L0 10.2176L5.6082 5.83301L11.2164 10.2176ZM5.57919 24.7817L11.1874 20.3971L16.7956 24.7817L11.1874 29.1663L5.57919 24.7817ZM11.2164 18.9632L16.8246 14.5786L11.2164 10.2176L16.7956 5.83301L22.4038 10.2176L16.7956 14.6023L22.4038 18.9869L16.7956 23.3715L11.2164 18.9632Z" fill="#0061FF"/>
</g>
<defs>
<clipPath id="clip0_29461_1452">
<rect width="96.9792" height="35" fill="white"/>
</clipPath>
</defs>
</svg>
